<?xml version="1.0" encoding="UTF-8"?>
<svg id="Layer_1" xmlns="http://www.w3.org/2000/svg" version="1.1" viewBox="0 0 958.7 323">
  <!-- Generator: Adobe Illustrator 30.2.1, SVG Export Plug-In . SVG Version: 2.1.1 Build 1)  -->
  <defs>
    <style>
      .st0 {
        isolation: isolate;
      }

      .st1 {
        fill:#0b0b0c;
      }
    </style>
  </defs>
  <g class="st0">
    <path class="st1" d="M265.6,277.2v-32h9.4c2.8,0,5.3.6,7.5,1.9s3.9,3,5.1,5.4,1.8,5,1.8,8v1.6c0,3-.6,5.7-1.8,8-1.2,2.3-2.9,4.1-5.2,5.3-2.2,1.2-4.8,1.9-7.7,1.9h-9.2ZM271.1,249.7v23.1h3.6c2.9,0,5.2-.9,6.7-2.7,1.6-1.8,2.4-4.4,2.4-7.9v-1.8c0-3.5-.8-6.1-2.3-8-1.5-1.8-3.7-2.7-6.6-2.7h-3.9Z"/>
    <path class="st1" d="M304.4,277.2h-5.5v-32h5.5v32Z"/>
    <path class="st1" d="M339.4,273.1c-1.2,1.5-2.8,2.7-4.8,3.4-2.1.8-4.4,1.2-7,1.2s-5.1-.6-7.1-1.8c-2.1-1.2-3.7-3-4.8-5.2-1.1-2.3-1.7-4.9-1.7-7.9v-2.5c0-4.8,1.2-8.6,3.5-11.3,2.3-2.7,5.5-4.1,9.7-4.1s6.4.9,8.5,2.6c2.1,1.8,3.4,4.3,3.8,7.6h-5.4c-.6-3.9-2.8-5.8-6.7-5.8s-4.4.9-5.7,2.7c-1.3,1.8-2,4.4-2,7.9v2.5c0,3.5.7,6.1,2.2,8,1.5,1.9,3.5,2.9,6.1,2.9s4.9-.6,6.1-1.9v-6.3h-6.6v-4.2h12.1v12.3Z"/>
  </g>
  <g class="st0">
    <path class="st1" d="M355.3,277.2h-5.5v-32h5.5v32Z"/>
  </g>
  <g class="st0">
    <path class="st1" d="M388.5,249.7h-10v27.5h-5.5v-27.5h-9.9v-4.5h25.4v4.5Z"/>
  </g>
  <g class="st0">
    <path class="st1" d="M412.4,269.8h-12.4l-2.6,7.4h-5.8l12.1-32h5l12.1,32h-5.8l-2.6-7.4ZM401.5,265.3h9.3l-4.6-13.3-4.6,13.3Z"/>
    <path class="st1" d="M433.6,272.8h14.5v4.4h-20.1v-32h5.6v27.6Z"/>
    <path class="st1" d="M491.4,277.2h-5.5v-32h5.5v32Z"/>
    <path class="st1" d="M526.4,273.1c-1.2,1.5-2.8,2.7-4.8,3.4-2.1.8-4.4,1.2-7,1.2s-5.1-.6-7.1-1.8c-2.1-1.2-3.7-3-4.8-5.2-1.1-2.3-1.7-4.9-1.7-7.9v-2.5c0-4.8,1.2-8.6,3.5-11.3,2.3-2.7,5.5-4.1,9.7-4.1s6.4.9,8.5,2.6c2.1,1.8,3.4,4.3,3.8,7.6h-5.4c-.6-3.9-2.8-5.8-6.7-5.8s-4.4.9-5.7,2.7c-1.3,1.8-2,4.4-2,7.9v2.5c0,3.5.7,6.1,2.2,8,1.5,1.9,3.5,2.9,6.1,2.9s4.9-.6,6.1-1.9v-6.3h-6.6v-4.2h12.1v12.3Z"/>
    <path class="st1" d="M561.5,277.2h-5.6l-14.3-22.7v22.7h-5.6v-32h5.6l14.3,22.8v-22.8h5.5v32Z"/>
  </g>
  <g class="st0">
    <path class="st1" d="M578,277.2h-5.5v-32h5.5v32Z"/>
  </g>
  <g class="st0">
    <path class="st1" d="M611.2,249.7h-10v27.5h-5.5v-27.5h-9.9v-4.5h25.4v4.5Z"/>
    <path class="st1" d="M624.9,277.2h-5.5v-32h5.5v32Z"/>
    <path class="st1" d="M660.9,262.1c0,3.1-.5,5.9-1.6,8.3-1.1,2.4-2.6,4.2-4.6,5.4-2,1.3-4.3,1.9-7,1.9s-4.9-.6-6.9-1.9c-2-1.3-3.6-3.1-4.7-5.4-1.1-2.3-1.7-5-1.7-8.1v-1.8c0-3.1.6-5.9,1.7-8.3,1.1-2.4,2.7-4.2,4.7-5.5,2-1.3,4.3-1.9,6.9-1.9s4.9.6,6.9,1.9c2,1.3,3.6,3.1,4.7,5.4s1.7,5.1,1.7,8.2v1.8ZM655.3,260.4c0-3.5-.7-6.3-2-8.2-1.3-1.9-3.2-2.8-5.7-2.8s-4.3.9-5.6,2.8c-1.4,1.9-2,4.5-2.1,8v1.8c0,3.5.7,6.2,2.1,8.2,1.4,1.9,3.3,2.9,5.7,2.9s4.4-.9,5.7-2.8c1.3-1.9,2-4.6,2-8.2v-1.7Z"/>
    <path class="st1" d="M695.4,277.2h-5.6l-14.3-22.7v22.7h-5.6v-32h5.6l14.3,22.8v-22.8h5.5v32Z"/>
  </g>
  <g>
    <g>
      <path class="st1" d="M82.6,156.9v25.6h49.3v32.6h-49.3v28h55.8v34.1H39.6V122.9h98.7v33.9h-55.8Z"/>
      <path class="st1" d="M270.4,216.4h-34.2l-45.6-52.2v52.2h-34.2v-93.5h34.2l45.6,52.9v-52.9h34.2v93.5Z"/>
      <path class="st1" d="M362.8,216.4l-38.6-41v41h-34.2v-93.5h34.2v40.3l38.3-40.3h39.5l-45.2,45.3,47.5,48.1h-41.4Z"/>
      <path class="st1" d="M451,122.9v93.5h-34.2v-93.5s34.2,0,34.2,0Z"/>
      <path class="st1" d="M584.7,216.4h-34.2l-45.6-52.2v52.2h-34.2v-93.5h34.2l45.6,52.9v-52.9h34.2v93.5Z"/>
      <path class="st1" d="M687,128.8c9.7,3.9,17.2,9.4,22.5,16.5,5.2,7.1,7.9,15.2,7.9,24.2s-2.7,17.1-8,24.1-12.8,12.6-22.5,16.6-21,6-33.8,6h-48.7v-93.5h48.7c12.9,0,24.2,2,34,5.9h0ZM673.9,187.3c5.7-4.2,8.6-10.1,8.6-17.7s-2.8-13.6-8.6-17.8c-5.7-4.2-13.6-6.3-23.6-6.3h-11.9v48.1h11.9c10,0,17.9-2.1,23.6-6.3Z"/>
      <path class="st1" d="M766.9,182.5l38.3.3v33.6h-72.5v-93.5h34.2v59.6h0Z"/>
    </g>
    <path class="st1" d="M879,156.9v25.6h-49.3v32.6h49.3v28h-55.8v34.1h98.7V122.9h-98.7v33.9h55.8Z"/>
  </g>
  <g>
    <path class="st1" d="M438.5,25.3c7,6.1,9.3,20.3,4.2,32.4-1.6-4.8-2.9-8.7-4.3-12.8-12.4,17.2-27.6,33.3-21.8,57.6-15.9-3.9-20.3-25.4-9.2-44.2,2.4,3.5,4.9,7.1,7.9,11.7,5.2-8.8,9.7-15.7,13.4-23,3.6-7,6.5-14.5,9.6-21.6"/>
    <path class="st1" d="M451,103.2c.8-2.9,1.8-5.1,1.9-7.4.3-5.2-4.9-9.2-9.8-6.6-5.6,2.9-10.3,7.7-15,11.4-.3-6.2,3.4-12,8.4-16.8,10.4-9.9,19.3-20.5,21.2-36.9,7.9,10.7,14.1,20.3,13.9,32.7-.2,12.2-7.7,21-20.5,23.7h0Z"/>
  </g>
</svg>