<svg width="1435" height="482" viewBox="0 0 1435 482" fill="none" xmlns="http://www.w3.org/2000/svg">
<path d="M313.396 138.952C366.545 215.636 347.466 320.887 270.782 374.036C194.098 427.185 88.8471 408.106 35.6981 331.421C-17.4509 254.737 1.62825 149.487 78.3125 96.3375C154.997 43.1886 260.247 62.2677 313.396 138.952ZM88.2652 294.988C121.292 342.64 186.696 354.496 234.348 321.469C282.001 288.441 293.856 223.038 260.829 175.386C227.802 127.733 162.398 115.877 114.746 148.905C67.0939 181.932 55.238 247.335 88.2652 294.988Z" fill="#14B8A6"/>
<rect x="283.933" y="290.885" width="192.446" height="58.1831" rx="29.0916" transform="rotate(55.2746 283.933 290.885)" fill="#14B8A6"/>
<path d="M96.4051 122.445C86.4119 108.027 66.3499 104.261 54.0536 116.774C44.6981 126.293 36.4774 136.915 29.5848 148.432C17.2355 169.066 9.43381 192.099 6.70129 215.991C3.96876 239.883 6.36839 264.083 13.7398 286.973C21.1111 309.863 33.2843 330.915 49.4455 348.723C65.6066 366.53 85.3832 380.682 107.453 390.232C129.523 399.782 153.377 404.511 177.421 404.102C201.465 403.692 225.145 398.154 246.877 387.858C259.006 382.112 270.373 374.957 280.753 366.566C294.395 355.537 292.588 335.205 279.203 323.864C265.819 312.524 245.922 314.714 231.12 324.129C227.449 326.465 223.628 328.576 219.677 330.447C206.117 336.872 191.342 340.327 176.34 340.582C161.337 340.838 146.453 337.887 132.683 331.929C118.912 325.97 106.572 317.139 96.4886 306.028C86.4048 294.917 78.8093 281.782 74.2099 267.499C69.6105 253.217 68.1132 238.117 69.8182 223.21C71.5231 208.302 76.3911 193.931 84.0965 181.056C86.3414 177.305 88.8121 173.706 91.4915 170.278C102.294 156.455 106.398 136.864 96.4051 122.445Z" fill="#6366F1"/>
<path d="M473.926 242.541C461.14 242.541 449.683 239.947 439.553 234.759C429.485 229.57 421.578 222.065 415.834 212.244C410.09 202.362 407.217 190.379 407.217 176.296V170.088C407.217 157.179 409.873 145.69 415.185 135.622C420.497 125.677 428.033 117.895 437.792 112.274C447.552 106.591 459.164 103.75 472.629 103.75C482.018 103.75 490.943 105.016 499.405 107.549C507.929 110.019 515.835 114.281 523.124 120.334V155.079H499.498L496.255 135.159C495.205 134.479 494.124 133.831 493.012 133.213C491.962 132.534 490.851 131.947 489.677 131.453C484.983 129.291 479.671 128.21 473.741 128.21C466.885 128.21 460.893 129.847 455.767 133.12C450.64 136.394 446.656 141.15 443.815 147.389C441.035 153.565 439.645 161.07 439.645 169.903V176.296C439.645 184.511 441.097 191.769 444 198.069C446.903 204.369 450.949 209.28 456.137 212.8C461.387 216.321 467.441 218.081 474.297 218.081C477.941 218.081 481.647 217.711 485.415 216.97C489.183 216.167 492.827 215.117 496.348 213.82L499.591 194.733H523.309V228.736C517.936 232.442 511.079 235.685 502.741 238.465C494.402 241.182 484.797 242.541 473.926 242.541ZM597.893 242.541C588.567 242.541 579.981 240.843 572.136 237.446C564.354 233.987 557.59 229.169 551.846 222.992C546.101 216.815 541.654 209.588 538.504 201.312C535.416 192.973 533.872 183.924 533.872 174.165V172.034C533.872 162.336 535.416 153.349 538.504 145.072C541.654 136.796 546.101 129.569 551.846 123.392C557.528 117.215 564.261 112.397 572.044 108.938C579.827 105.479 588.381 103.75 597.708 103.75C606.85 103.75 615.343 105.479 623.187 108.938C631.032 112.397 637.919 117.215 643.848 123.392C649.716 129.569 654.287 136.796 657.561 145.072C660.835 153.349 662.471 162.336 662.471 172.034V174.165C662.471 183.924 660.835 192.973 657.561 201.312C654.287 209.588 649.716 216.815 643.848 222.992C637.981 229.169 631.124 233.987 623.28 237.446C615.435 240.843 606.973 242.541 597.893 242.541ZM597.893 217.896C604.626 217.896 610.432 216.074 615.312 212.43C625.195 204.894 630.136 192.139 630.136 174.165V171.849C630.136 163.386 628.87 155.82 626.337 149.149C623.743 142.663 620.037 137.598 615.219 133.954C610.401 130.31 604.564 128.488 597.708 128.488C590.42 128.488 584.521 130.279 580.012 133.862C575.379 137.444 571.951 142.478 569.728 148.964C567.504 155.449 566.392 163.078 566.392 171.849V174.165C566.392 182.998 567.535 190.657 569.82 197.142C572.044 203.69 575.472 208.785 580.104 212.43C584.799 216.074 590.728 217.896 597.893 217.896ZM713.985 156.098V218.637L731.774 221.602V240.596H671.273V221.602L685.171 218.637V127.747L671.273 124.782V105.696H718.247L772.356 192.046H772.912V127.747L755.215 124.782V105.696H815.716V124.782L801.726 127.747V240.596H769.669L714.541 156.098H713.985ZM879.738 242.541C868.744 242.541 858.984 241.491 850.461 239.391C841.937 237.291 833.444 233.338 824.981 227.532V192.51H850.09L852.869 210.484C854.846 212.708 858.336 214.592 863.339 216.136C868.342 217.618 873.809 218.359 879.738 218.359C883.815 218.359 887.274 217.834 890.115 216.784C895.736 214.746 898.546 210.886 898.546 205.203C898.546 202.547 897.898 200.169 896.601 198.069C894.007 194.116 887.737 190.193 877.793 186.302C866.427 182.658 856.946 178.89 849.349 174.999C841.937 171.169 836.408 166.629 832.764 161.379C829.182 156.129 827.39 149.612 827.39 141.83C827.39 134.356 829.521 127.808 833.783 122.188C838.045 116.628 843.913 112.243 851.387 109.031C858.861 105.819 867.416 104.121 877.051 103.935C888.046 103.688 897.774 104.8 906.237 107.271C914.699 109.68 922.173 113.355 928.658 118.296V150.817H904.569L900.77 132.75C898.67 131.7 895.674 130.742 891.783 129.878C887.892 129.013 883.753 128.58 879.368 128.58C875.476 128.58 872.141 129.075 869.361 130.063C866.397 131.051 864.049 132.534 862.32 134.51C860.652 136.487 859.818 138.957 859.818 141.922C859.818 144.269 860.529 146.4 861.949 148.315C863.493 150.415 866.335 152.484 870.473 154.523C874.612 156.561 879.275 158.569 884.464 160.545C899.782 165.054 911.394 170.706 919.3 177.5C927.268 184.233 931.252 193.405 931.252 205.018C931.252 213.047 929.09 219.811 924.767 225.308C920.443 230.929 914.421 235.222 906.7 238.187C898.979 241.09 889.992 242.541 879.738 242.541ZM1007.97 242.541C996.293 242.541 986.194 240.657 977.671 236.89C969.085 233.184 962.414 227.717 957.658 220.49C952.964 213.264 950.616 204.431 950.616 193.992V127.747L936.719 124.782V105.696H997.127V124.782L983.137 127.747V193.992C983.137 199.489 984.094 203.968 986.009 207.427C989.777 214.468 997.035 217.989 1007.78 217.989C1013.28 217.989 1017.85 217.124 1021.49 215.395C1028.91 211.936 1032.61 204.801 1032.61 193.992V127.747L1018.72 124.782V105.696H1079.12V124.782L1065.13 127.747V193.992C1065.13 204.246 1062.72 212.986 1057.91 220.212C1053.09 227.501 1046.39 233.06 1037.8 236.89C1029.28 240.657 1019.33 242.541 1007.97 242.541ZM1163.16 215.673L1163.9 196.864H1188.73V240.596H1084.59V221.602L1098.58 218.637V127.747L1084.59 124.782V105.696H1148.15V124.782L1131.1 127.747V215.673H1163.16ZM1258.22 130.897V218.637L1272.3 221.602V240.596H1211.61V221.602L1225.7 218.637V130.897H1204.85L1204.02 145.443H1179.46V105.696H1304.82V145.443H1279.99L1279.25 130.897H1258.22ZM1342.25 205.296L1338.36 219.934L1347.16 221.602V240.596H1296.67V221.602L1306.12 220.212L1346.33 105.696H1381.54L1421.84 220.212L1431.29 221.602V240.596H1380.89V221.602L1389.69 219.934L1385.61 205.296H1342.25ZM1365.51 141.644L1364.03 136.919H1363.47L1361.89 142.108L1349.11 182.503H1378.66L1365.51 141.644Z" fill="#6366F1"/>
<path d="M450.762 385.625H407.723V373.912L418.232 371.703V302.225L407.723 299.949V288.169H450.494C459.24 288.169 466.915 290.199 473.519 294.26C480.168 298.32 485.344 303.965 489.048 311.194C492.796 318.423 494.671 326.701 494.671 336.027V337.834C494.671 347.115 492.841 355.326 489.182 362.466C485.523 369.695 480.369 375.362 473.72 379.467C467.116 383.572 459.463 385.625 450.762 385.625ZM449.758 303.162H437.776V370.699H449.758C455.202 370.699 459.775 369.271 463.479 366.415C467.227 363.604 470.083 359.721 472.047 354.768C474.055 349.815 475.059 344.17 475.059 337.834V335.96C475.059 329.579 474.077 323.889 472.114 318.892C470.106 313.983 467.227 310.145 463.479 307.379C459.731 304.568 455.157 303.162 449.758 303.162ZM564.55 370.632L565.42 358.985H580.279V385.625H503.171V373.912L513.546 371.903V301.957L503.171 299.949V288.169H578.807V314.474H563.814L562.943 303.229H533.091V327.727H566.089V342.787H533.091V370.632H564.55ZM667.495 371.903L677.936 373.912V385.625H637.575V373.912L647.95 371.903V301.957L637.575 299.949V288.169H683.961C691.457 288.169 697.883 289.463 703.238 292.051C708.637 294.639 712.787 298.276 715.687 302.961C718.588 307.647 720.038 313.091 720.038 319.293C720.038 325.496 718.588 330.917 715.687 335.558C712.787 340.244 708.637 343.88 703.238 346.468C697.838 349.012 691.413 350.284 683.961 350.284H667.495V371.903ZM683.961 303.229H667.495V335.224H683.961C689.405 335.224 693.51 333.751 696.276 330.806C699.088 327.816 700.493 324.023 700.493 319.427C700.493 314.742 699.088 310.882 696.276 307.847C693.51 304.768 689.405 303.229 683.961 303.229ZM792.059 343.323L804.442 371.97L812.742 373.912V385.625H789.047L774.054 347.138H756.25V371.903L766.691 373.912V385.625H726.33V373.912L736.705 371.903V301.957L726.33 299.949V288.169H772.515C780.056 288.169 786.481 289.329 791.792 291.649C797.146 293.97 801.252 297.294 804.108 301.623C807.008 305.951 808.458 311.149 808.458 317.218C808.458 322.975 807.03 328.084 804.174 332.546C801.319 337.098 797.28 340.69 792.059 343.323ZM756.25 303.229V332.078H772.18C783.38 332.078 788.98 327.415 788.98 318.088C788.98 313.581 787.597 309.989 784.83 307.312C782.064 304.59 777.959 303.229 772.515 303.229H756.25ZM862.407 387.031C855.848 387.031 849.868 385.803 844.469 383.349C839.069 380.895 834.429 377.437 830.547 372.974C826.62 368.557 823.608 363.358 821.51 357.379C819.413 351.355 818.364 344.773 818.364 337.633V336.161C818.364 329.066 819.413 322.528 821.51 316.549C823.608 310.525 826.597 305.282 830.48 300.819C834.362 296.357 839.003 292.899 844.402 290.445C849.801 287.99 855.781 286.763 862.34 286.763C868.944 286.763 874.969 287.99 880.413 290.445C885.857 292.899 890.542 296.357 894.469 300.819C898.396 305.282 901.408 310.525 903.505 316.549C905.647 322.528 906.718 329.066 906.718 336.161V337.633C906.718 344.773 905.647 351.355 903.505 357.379C901.408 363.358 898.396 368.557 894.469 372.974C890.542 377.437 885.857 380.895 880.413 383.349C875.013 385.803 869.011 387.031 862.407 387.031ZM862.407 371.837C867.94 371.837 872.537 370.409 876.196 367.553C879.855 364.697 882.599 360.703 884.429 355.572C886.303 350.44 887.24 344.46 887.24 337.633V336.027C887.24 329.289 886.303 323.354 884.429 318.222C882.554 313.135 879.766 309.164 876.062 306.308C872.403 303.452 867.829 302.024 862.34 302.024C856.896 302.024 852.367 303.43 848.753 306.241C845.138 309.097 842.416 313.068 840.587 318.155C838.802 323.242 837.909 329.199 837.909 336.027V337.633C837.909 344.371 838.824 350.351 840.654 355.572C842.483 360.703 845.205 364.697 848.82 367.553C852.434 370.409 856.963 371.837 862.407 371.837ZM960.934 387.031C951.519 387.031 943.286 385.045 936.236 381.073C929.23 377.102 923.808 371.502 919.971 364.273C916.178 357.044 914.281 348.476 914.281 338.57V335.29C914.281 325.83 916.133 317.441 919.837 310.123C923.541 302.805 928.784 297.093 935.566 292.988C942.394 288.838 950.515 286.763 959.93 286.763C966.535 286.763 972.715 287.7 978.471 289.574C984.272 291.449 989.448 294.304 994 298.142V321.703H979.475L977.467 306.91C975.905 305.795 974.299 304.88 972.648 304.166C969.123 302.604 965.04 301.823 960.399 301.823C954.821 301.823 950.069 303.184 946.142 305.906C937.931 311.484 933.826 321.234 933.826 335.157V338.57C933.826 345.308 934.942 351.221 937.173 356.308C939.404 361.306 942.572 365.188 946.677 367.954C950.783 370.676 955.647 372.037 961.269 372.037C964.08 372.037 966.892 371.725 969.703 371.1C972.559 370.431 975.147 369.583 977.467 368.557L979.475 354.835H994V378.128C990.207 380.627 985.477 382.747 979.81 384.487C974.143 386.183 967.851 387.031 960.934 387.031ZM1064.41 370.632L1065.28 358.985H1080.14V385.625H1003.04V373.912L1013.41 371.903V301.957L1003.04 299.949V288.169H1078.67V314.474H1063.68L1062.81 303.229H1032.96V327.727H1065.95V342.787H1032.96V370.632H1064.41ZM1130.35 387.031C1123.16 387.031 1116.62 386.227 1110.73 384.621C1104.84 383.015 1099.04 380.226 1093.33 376.254V352.693H1108.46L1110.53 366.549C1112.54 368.244 1115.31 369.628 1118.83 370.699C1122.36 371.725 1126.2 372.238 1130.35 372.238C1133.91 372.238 1136.9 371.747 1139.31 370.766C1144.27 368.758 1146.74 365.232 1146.74 360.19C1146.74 357.825 1146.19 355.75 1145.07 353.965C1142.88 350.485 1137.46 347.406 1128.81 344.728C1120.91 342.408 1114.53 339.909 1109.66 337.232C1104.58 334.554 1100.76 331.341 1098.22 327.593C1095.72 323.8 1094.47 319.249 1094.47 313.938C1094.47 308.673 1095.94 304.01 1098.89 299.949C1101.79 295.933 1105.82 292.765 1111 290.445C1116.18 288.124 1122.16 286.919 1128.94 286.83C1136.44 286.741 1143.06 287.633 1148.82 289.507C1154.62 291.382 1159.62 293.992 1163.81 297.339V319.293H1149.15L1146.61 305.906C1144.91 304.835 1142.62 303.898 1139.72 303.095C1136.86 302.292 1133.6 301.89 1129.94 301.89C1126.82 301.89 1124.08 302.359 1121.71 303.296C1119.3 304.233 1117.4 305.594 1116.02 307.379C1114.64 309.164 1113.95 311.328 1113.95 313.871C1113.95 316.058 1114.55 317.954 1115.75 319.561C1117.98 322.595 1123.92 325.697 1133.56 328.865C1144.31 331.854 1152.46 335.804 1157.99 340.712C1163.57 345.621 1166.36 352.069 1166.36 360.056C1166.36 365.634 1164.86 370.409 1161.87 374.38C1158.88 378.441 1154.69 381.564 1149.29 383.751C1143.89 385.937 1137.57 387.031 1130.35 387.031ZM1213.88 387.031C1206.69 387.031 1200.16 386.227 1194.27 384.621C1188.38 383.015 1182.58 380.226 1176.86 376.254V352.693H1191.99L1194.07 366.549C1196.07 368.244 1198.84 369.628 1202.37 370.699C1205.89 371.725 1209.73 372.238 1213.88 372.238C1217.45 372.238 1220.44 371.747 1222.85 370.766C1227.8 368.758 1230.28 365.232 1230.28 360.19C1230.28 357.825 1229.72 355.75 1228.6 353.965C1226.42 350.485 1221 347.406 1212.34 344.728C1204.44 342.408 1198.06 339.909 1193.2 337.232C1188.11 334.554 1184.29 331.341 1181.75 327.593C1179.25 323.8 1178 319.249 1178 313.938C1178 308.673 1179.47 304.01 1182.42 299.949C1185.32 295.933 1189.36 292.765 1194.53 290.445C1199.71 288.124 1205.69 286.919 1212.47 286.83C1219.97 286.741 1226.6 287.633 1232.35 289.507C1238.15 291.382 1243.15 293.992 1247.35 297.339V319.293H1232.69L1230.14 305.906C1228.45 304.835 1226.15 303.898 1223.25 303.095C1220.39 302.292 1217.14 301.89 1213.48 301.89C1210.35 301.89 1207.61 302.359 1205.24 303.296C1202.83 304.233 1200.94 305.594 1199.56 307.379C1198.17 309.164 1197.48 311.328 1197.48 313.871C1197.48 316.058 1198.08 317.954 1199.29 319.561C1201.52 322.595 1207.45 325.697 1217.09 328.865C1227.85 331.854 1235.99 335.804 1241.52 340.712C1247.1 345.621 1249.89 352.069 1249.89 360.056C1249.89 365.634 1248.39 370.409 1245.4 374.38C1242.42 378.441 1238.22 381.564 1232.82 383.751C1227.42 385.937 1221.11 387.031 1213.88 387.031ZM1302.3 387.031C1295.74 387.031 1289.76 385.803 1284.36 383.349C1278.96 380.895 1274.32 377.437 1270.44 372.974C1266.51 368.557 1263.5 363.358 1261.4 357.379C1259.31 351.355 1258.26 344.773 1258.26 337.633V336.161C1258.26 329.066 1259.31 322.528 1261.4 316.549C1263.5 310.525 1266.49 305.282 1270.37 300.819C1274.25 296.357 1278.89 292.899 1284.29 290.445C1289.69 287.99 1295.67 286.763 1302.23 286.763C1308.84 286.763 1314.86 287.99 1320.3 290.445C1325.75 292.899 1330.43 296.357 1334.36 300.819C1338.29 305.282 1341.3 310.525 1343.4 316.549C1345.54 322.528 1346.61 329.066 1346.61 336.161V337.633C1346.61 344.773 1345.54 351.355 1343.4 357.379C1341.3 363.358 1338.29 368.557 1334.36 372.974C1330.43 377.437 1325.75 380.895 1320.3 383.349C1314.91 385.803 1308.9 387.031 1302.3 387.031ZM1302.3 371.837C1307.83 371.837 1312.43 370.409 1316.09 367.553C1319.75 364.697 1322.49 360.703 1324.32 355.572C1326.19 350.44 1327.13 344.46 1327.13 337.633V336.027C1327.13 329.289 1326.19 323.354 1324.32 318.222C1322.45 313.135 1319.66 309.164 1315.95 306.308C1312.29 303.452 1307.72 302.024 1302.23 302.024C1296.79 302.024 1292.26 303.43 1288.64 306.241C1285.03 309.097 1282.31 313.068 1280.48 318.155C1278.69 323.242 1277.8 329.199 1277.8 336.027V337.633C1277.8 344.371 1278.72 350.351 1280.55 355.572C1282.38 360.703 1285.1 364.697 1288.71 367.553C1292.33 370.409 1296.86 371.837 1302.3 371.837ZM1394.2 387.031C1387.02 387.031 1380.48 386.227 1374.59 384.621C1368.7 383.015 1362.9 380.226 1357.19 376.254V352.693H1372.31L1374.39 366.549C1376.4 368.244 1379.16 369.628 1382.69 370.699C1386.21 371.725 1390.05 372.238 1394.2 372.238C1397.77 372.238 1400.76 371.747 1403.17 370.766C1408.12 368.758 1410.6 365.232 1410.6 360.19C1410.6 357.825 1410.04 355.75 1408.93 353.965C1406.74 350.485 1401.32 347.406 1392.66 344.728C1384.76 342.408 1378.38 339.909 1373.52 337.232C1368.43 334.554 1364.61 331.341 1362.07 327.593C1359.57 323.8 1358.32 319.249 1358.32 313.938C1358.32 308.673 1359.8 304.01 1362.74 299.949C1365.64 295.933 1369.68 292.765 1374.86 290.445C1380.03 288.124 1386.01 286.919 1392.79 286.83C1400.29 286.741 1406.92 287.633 1412.67 289.507C1418.47 291.382 1423.47 293.992 1427.67 297.339V319.293H1413.01L1410.46 305.906C1408.77 304.835 1406.47 303.898 1403.57 303.095C1400.71 302.292 1397.46 301.89 1393.8 301.89C1390.67 301.89 1387.93 302.359 1385.57 303.296C1383.16 304.233 1381.26 305.594 1379.88 307.379C1378.49 309.164 1377.8 311.328 1377.8 313.871C1377.8 316.058 1378.4 317.954 1379.61 319.561C1381.84 322.595 1387.77 325.697 1397.41 328.865C1408.17 331.854 1416.31 335.804 1421.84 340.712C1427.42 345.621 1430.21 352.069 1430.21 360.056C1430.21 365.634 1428.72 370.409 1425.73 374.38C1422.74 378.441 1418.54 381.564 1413.14 383.751C1407.74 385.937 1401.43 387.031 1394.2 387.031Z" fill="#14B8A6"/>
</svg>
