<?xml version="1.0" encoding="utf-8"?>
<svg version="1.0" xmlns="http://www.w3.org/2000/svg" width="1024px" height="527px" viewBox="0 0 1024 527" preserveAspectRatio="xMidYMid meet">
 <g fill="#ffffff">
  <path d="M221 354.8 c0 -2.4 1.6 -12.3 3.6 -22.1 3.2 -16.1 3.8 -18.1 6.4 -20.5 2.1 -2 3.1 -4 3.6 -7.6 0.6 -4.3 0.5 -4.8 -1 -4.3 -1.2 0.5 -1.6 0 -1.6 -2.1 0 -5.3 14 -72.6 15.2 -73.4 0.8 -0.5 0.9 -0.8 0.2 -0.8 -0.7 0 0.2 -6.4 2.5 -18 3.2 -16.3 3.9 -18.2 6.3 -20.3 3.3 -2.7 5.4 -11.5 2.5 -10.4 -2.5 0.9 -2.2 -3.2 1.6 -21.3 l3.2 -15.5 21.5 -0.3 c16.9 -0.2 21.2 0 20.2 1 -0.7 0.7 -1.2 1.6 -1.2 2 0 0.4 6.4 0.8 14.3 0.8 12.4 0 14.6 -0.3 17.5 -2 3.1 -1.9 5 -2 37.9 -2 34.5 0 34.6 0 32.8 2 -1.8 2 -1.7 2 9.4 2 10.2 0 11.2 0.2 10.7 1.8 -1 3.4 -2.6 10.7 -2.6 12.4 0 1.1 0.5 1.5 1.5 1.2 2.2 -0.9 1.9 2.8 -1.3 18.1 l-2.7 13 -24.2 0.3 c-16 0.1 -24.3 -0.1 -24.3 -0.8 0 -0.5 0.5 -1 1.1 -1 0.5 0 0.7 -0.4 0.4 -1 -0.4 -0.6 -6.3 -1 -14.4 -1 -12.3 0 -14.1 0.2 -16.4 2 -2.2 1.8 -4 2 -16.1 2 -13.2 0 -13.6 0.1 -14.1 2.3 -0.3 1.2 -1.4 6.6 -2.5 12.1 -1.6 7.8 -2.5 10.2 -4.4 11.7 -1.4 1.1 -2.7 3.4 -3.1 5.2 -0.4 1.7 -0.9 4 -1.1 5 -0.7 2.3 1.7 2.2 5.8 -0.3 3.1 -1.9 5.1 -2 40.6 -2 l37.2 0 0 3.9 c0 3.1 -0.6 4.3 -2.6 5.8 -2 1.5 -2.9 3.5 -4 8.8 -0.8 3.9 -1.6 8.1 -1.9 9.4 -0.5 2 -0.3 2.3 1.6 1.8 2 -0.5 2.1 -0.3 1.6 3.6 -0.3 2.3 -1.1 6.6 -1.7 9.5 l-1.2 5.2 -13.9 0 c-8.6 0 -13.9 -0.4 -13.9 -1 0 -0.5 0.5 -1 1.1 -1 0.5 0 0.7 -0.4 0.4 -1 -0.3 -0.5 -3.6 -1 -7.2 -1 -4.9 0 -7.2 0.5 -9.3 2 -2.4 1.7 -4.7 2 -20.1 2.2 l-17.4 0.3 -6.7 33.8 c-6.5 32.6 -6.8 33.9 -9.8 36.7 -1.6 1.5 -3 3.7 -3 4.8 0 1.1 -0.3 2.8 -0.7 3.7 -0.5 1.4 -0.2 1.6 1.5 1 1.9 -0.5 2.2 -0.2 2.2 1.9 0 4.7 -0.9 5.6 -5.8 5.6 -3.6 0 -4.3 -0.3 -3.4 -1.2 2.3 -2.3 1.1 -2.8 -6.5 -2.8 -6 0 -8.5 0.5 -11.1 2 -2.9 1.8 -5 2 -18.2 2 l-15 0 0 -4.2z"/>
  <path d="M406 354.2 c0 -2.6 2.2 -15.7 4.9 -29.1 4.4 -22.1 5.1 -24.5 7.5 -26.5 2.1 -1.7 3 -3.9 4.6 -12 1.1 -5.5 1.8 -10.1 1.5 -10.4 -0.2 -0.3 -1.1 0.1 -2 0.8 -2.2 1.8 -2.2 1.5 3.7 -28.1 4.9 -24.9 5.4 -26.7 7.7 -28.1 2.3 -1.3 2.9 -2.9 5.4 -15.4 3.2 -16.3 3.2 -16.5 1.2 -15.8 -1.1 0.5 -1.5 -0.1 -1.5 -2.4 0 -3.1 7.6 -40.7 8.5 -42.2 0.3 -0.5 3.1 -2.2 6.2 -3.9 l5.7 -3.1 18.4 0 c17.5 0 18.4 0.1 18.9 2 0.5 1.9 1.6 2 57.7 2.2 l57.2 0.3 -4.5 21.2 -4.4 21.3 -42.6 0.2 c-39.6 0.3 -42.6 0.4 -42.3 2 0.2 1.5 -0.9 1.8 -9.5 2 l-9.7 0.3 -3.3 16.5 c-1.8 9.1 -3.7 17.3 -4.3 18.2 -0.5 1 -1 2 -1 2.3 0 0.3 17.3 0.5 38.5 0.5 21.2 0 38.5 0.1 38.5 0.3 0 0.5 -6.9 34.8 -7.5 37.5 -0.5 2.2 -0.8 2.2 -16.9 2.2 -15 0 -16.4 0.2 -18.1 2 -1.7 1.9 -3.1 2 -22 2 l-20.2 0 -3.8 19 c-2.1 10.5 -4.2 19.3 -4.6 19.6 -3.4 2.1 3.4 2.4 51.1 2.4 33.1 0 52 0.4 52 1 0 1.3 -6.9 38.1 -7.6 40.3 -0.5 1.6 -3 1.7 -33.8 1.7 -32 0 -33.4 0.1 -35.1 2 -1.7 1.9 -3.1 2 -33.7 2 -20.5 0 -31.8 -0.4 -31.8 -1 0 -0.5 0.5 -1 1 -1 0.6 0 1 -0.4 1 -1 0 -0.6 -3.9 -1 -9.6 -1 -8.1 0 -10 0.3 -12.1 2 -1.4 1.1 -4.1 2 -5.9 2 -3.4 0 -3.4 0 -3.4 -4.8z"/>
  <path d="M653.6 355.5 c-28.5 -5.9 -46 -20.5 -50.5 -42.3 -1.8 -8.6 -1.5 -12.1 1.2 -12.7 1.2 -0.2 11.9 -2.3 23.7 -4.5 11.8 -2.3 22.3 -4.3 23.3 -4.6 1.4 -0.5 1.7 0.1 1.7 3.6 0 7.9 5.3 14.9 13.7 18 6.6 2.5 21.5 2.7 28.9 0.5 6.7 -2 14 -7 17.2 -11.7 3 -4.7 4.2 -14.1 2.2 -18.8 -2.6 -6.3 -8 -9.1 -35 -18 -36.5 -12.1 -48.6 -20.4 -54.4 -37.3 -3.4 -10.1 -1 -28.5 5.7 -43 10.7 -23 37.5 -40.1 68.7 -43.8 14 -1.6 34.1 -0.6 44 2.1 21.7 6.1 35.9 20.8 39.2 40.7 0.7 4 0.9 7.5 0.6 7.8 -0.6 0.6 -44.1 8.5 -46.9 8.5 -1.1 0 -1.9 -1.2 -2.3 -3.5 -0.8 -4 -5.5 -9.9 -9.6 -12 -1.5 -0.8 -5.6 -1.9 -9.1 -2.5 -17 -3 -35.4 7.1 -37.5 20.5 -0.8 5.7 0.7 9.5 5.4 13.7 4.5 3.9 11.2 6.9 31.7 14.3 35.4 12.7 47.3 21.2 52.9 37.8 2.2 6.7 2.1 19.5 -0.4 29.2 -7.1 27.8 -28.6 48 -59.9 56.2 -8.3 2.2 -12.1 2.6 -28.6 2.9 -13.7 0.2 -20.9 -0.1 -25.9 -1.1z"/>
  <path d="M785.2 353.7 c0.2 -0.8 9.8 -48.7 21.3 -106.5 l21 -105.2 26.5 0 26.5 0 3.9 9.8 c2.1 5.3 6.7 16.5 10.2 24.7 3.4 8.3 10.9 26.5 16.7 40.5 5.8 14 13.2 32 16.5 40 3.2 7.9 6.3 14.5 6.9 14.7 0.5 0.2 1.9 -5.2 3.2 -11.9 1.3 -6.8 7 -35.7 12.7 -64.2 5.7 -28.5 10.4 -52.3 10.4 -52.8 0 -0.4 11.7 -0.8 26 -0.8 14.4 0 26 0.4 26 0.9 0 0.5 -9.4 48.1 -21 105.9 -11.5 57.7 -21 105.3 -21 105.6 0 0.4 -12 0.5 -26.7 0.4 l-26.6 -0.3 -5.4 -13 c-8.5 -20.4 -23.5 -56.5 -35.4 -85.3 -11.7 -28.2 -12.8 -30.6 -13.6 -29.9 -0.2 0.3 -6.2 29.2 -13.3 64.4 l-12.8 63.8 -26.2 0.3 c-21.7 0.2 -26.1 0 -25.8 -1.1z"/>
 </g>
 <g fill="#ffc501">
  <path d="M389.3 459.2 l-15.1 -16.9 11.4 -11.4 c7.4 -7.5 11.1 -11.8 10.6 -12.6 -1.5 -2.3 -11.1 0.2 -19 4.9 -11.2 6.6 -11.5 6.8 -14.9 6.8 -3 0 -3.3 -0.3 -3.3 -2.9 0 -2 -0.6 -3.2 -1.9 -3.6 -1 -0.3 -2.6 -1.4 -3.6 -2.5 -1 -1.1 -2.7 -2 -3.8 -2 -1.7 0 -1.9 -0.5 -1.4 -4.7 0.2 -2.7 0.8 -5.6 1.2 -6.5 0.6 -1.6 0.1 -1.8 -3.9 -1.8 -3.4 0 -4.6 -0.4 -4.6 -1.5 0 -1 -1.1 -1.5 -3.5 -1.5 -2.4 0 -3.5 -0.5 -3.5 -1.5 0 -0.8 -0.4 -1.5 -1 -1.5 -0.5 0 -1 -1.1 -1 -2.4 0 -1.3 -0.7 -2.9 -1.5 -3.6 -0.8 -0.7 -1.5 -1.8 -1.5 -2.5 0 -0.6 6.3 -6.3 14.1 -12.4 7.7 -6.2 13.8 -11.5 13.5 -11.8 -0.5 -0.6 -9.3 4.2 -23 12.4 -4.8 3 -9.4 5.3 -10.1 5.1 -1.4 -0.3 -34.3 -36.4 -35.2 -38.6 -0.3 -0.7 0.3 -1.9 1.3 -2.6 8 -5.6 28.5 -21.9 28 -22.3 -0.2 -0.3 -6.9 3.2 -14.8 7.8 -7.9 4.5 -16.3 9.4 -18.7 10.7 l-4.4 2.5 0.6 -2.4 c0.3 -1.3 3.5 -17.7 7.2 -36.4 3.6 -18.7 7 -34.3 7.4 -34.8 0.4 -0.4 9.8 -0.6 20.8 -0.5 l20.1 0.3 -20.5 15.5 c-11.3 8.5 -21 15.8 -21.6 16.2 -0.6 0.4 -0.9 1 -0.5 1.3 0.3 0.4 13.9 -7 30.1 -16.4 l29.4 -17.1 11.1 0 11.1 0 1.1 -5.7 c0.6 -3.2 1.3 -6.5 1.6 -7.3 0.2 -0.9 3 -3.1 6.1 -4.9 l5.8 -3.3 2.4 2.9 c9.7 11.3 25.5 28.3 26.2 28.3 2.6 0 -0.5 2.9 -13.8 13.1 -8.2 6.2 -18.6 14.2 -23.3 17.8 -4.7 3.6 -17 13 -27.5 20.9 -20 15.2 -23.7 18.3 -23.1 18.9 0.4 0.4 8.9 -4.5 52.6 -29.8 26.7 -15.4 36.4 -20.9 36.6 -20.6 0.1 0.1 -2.2 12.3 -5.2 27.2 -3 14.8 -5.4 27.7 -5.4 28.6 0 1.3 1 1.9 3.5 2.1 l3.5 0.3 -8.2 6.5 c-20.9 16.4 -38.9 31.2 -38.5 31.7 0.3 0.2 9.7 -4.8 20.9 -11.3 11.1 -6.5 26.4 -15.3 33.9 -19.6 l13.6 -7.8 27.7 0 c26.9 0 27.6 0 27.6 2 0 1.1 -0.6 2 -1.2 2 -0.8 0.1 -0.6 0.6 0.5 1.4 0.9 0.7 1.7 1.5 1.7 1.8 0 0.3 -5.1 5.6 -11.4 11.7 -7.6 7.5 -11.2 11.8 -10.9 12.9 0.2 0.9 -0.3 2.6 -1.1 3.7 -1.4 1.7 -1.7 1.8 -2.6 0.5 -0.8 -1.3 -1.5 -1 -4.2 1.9 -2.2 2.2 -2.9 3.5 -2 3.8 2.3 0.9 1.2 2.3 -1.9 2.3 -4.1 0 -9.5 5.3 -10.4 10.3 -0.6 3.3 -2.5 5.3 -2.5 2.7 0 -2.6 -3.3 -0.2 -12 8.5 -5.2 5.2 -8.9 9.5 -8.2 9.5 0.6 0 3.3 -1.3 6 -3 6.3 -3.9 11.7 -4.6 16.2 -2.3 7.1 3.7 9.8 11.7 6.4 18.9 -1.3 2.7 -4.2 4.9 -13.3 10.3 -16.7 9.8 -34.3 19.9 -36.1 20.6 -1.1 0.4 -6.1 -4.4 -16.7 -16.3z m14.6 -46.1 c1.7 -1.6 3.1 -3.9 3.1 -5 0 -1.9 -0.3 -2 -2.2 -1 -3.8 2 -5.7 4.5 -5.1 6.8 0.3 1.1 0.7 2.1 0.8 2.1 0.2 0 1.7 -1.3 3.4 -2.9z"/>
  <path d="M231 285.6 c0 -1.9 -0.5 -3.8 -1 -4.1 -1.7 -1 -23 -24.7 -23 -25.5 0 -0.4 9.2 -7.6 20.4 -16.1 11.3 -8.5 20 -15.6 19.5 -15.7 -0.5 -0.2 -9.8 4.8 -20.7 11.1 -10.8 6.3 -21 12.1 -22.6 12.8 -3.3 1.5 -1.5 3.1 -25.4 -23.3 l-12.2 -13.7 21.9 -16.8 c12.1 -9.2 22 -17.2 22.1 -17.6 0 -0.9 -6.4 2.6 -31.3 17.1 -9.8 5.6 -18.2 10.2 -18.7 10 -0.6 -0.2 -24.7 -26.7 -32.6 -35.9 -1.3 -1.4 -0.4 -2.5 7.8 -9 24.4 -19.5 34.8 -28.2 34.4 -28.7 -0.3 -0.2 -11.6 5.9 -25.1 13.7 -13.5 7.7 -24.9 14.1 -25.3 14.1 -1 0 -33.2 -35.6 -33.2 -36.7 0 -0.4 5.3 -6.1 11.7 -12.5 11.3 -11.3 12.8 -13.4 7.3 -10.3 -3.8 2.2 -10.2 1.9 -14.1 -0.8 -4.4 -2.9 -7.3 -8.7 -6.5 -13 1.3 -7.1 3.2 -8.5 35.7 -27.2 17.2 -9.9 38.7 -22.4 47.8 -27.7 l16.6 -9.7 3.4 3.7 c1.9 2 6.5 7.1 10.4 11.2 l6.9 7.5 -40.4 39.7 c-22.1 21.9 -39.8 39.7 -39.3 39.7 1.2 0.1 4.5 -1.7 37.5 -20.9 14.6 -8.4 32.8 -18.9 40.4 -23.3 7.7 -4.3 15.7 -9 17.8 -10.3 2.1 -1.3 3.9 -2.4 4.1 -2.4 0.2 0 6.4 6.8 13.7 15.1 7.4 8.3 14.1 15.5 15 16 1.9 1.2 0.4 2.5 -26 23.8 -43.8 35.3 -50 40.4 -49.6 40.9 0.5 0.5 3.8 -1.3 37.1 -20.5 10.5 -6.1 26.2 -15.2 35 -20.2 l16 -9.3 4.5 4.9 c14.8 16.1 18 20.1 18 22.6 l0 2.6 -11.2 0.3 -11.3 0.3 -3.4 16.5 -3.3 16.5 -4.7 3.4 c-14.6 10.8 -37.1 28.5 -36.7 28.9 0.4 0.4 20.6 -10.8 36.2 -20 l3.1 -1.8 -9.3 46.7 c-5.2 25.8 -9.9 49.2 -10.5 52.1 -1 4.8 -1.2 5.2 -4 5.2 -2.6 0 -2.9 -0.3 -2.9 -3.4z"/>
  <path d="M312 222.9 c3 -1.7 12.4 -7.2 20.8 -12.1 8.4 -4.9 15.6 -8.6 16.1 -8.4 0.4 0.3 4.1 4.3 8.2 9 7.1 8.3 7.6 8.6 11.7 8.6 4 0 4.2 0.1 4.2 3 l0 3 -33.2 0 -33.3 0 5.5 -3.1z"/>
  <path d="M305 215.7 c0 -0.5 4.8 -24.4 5.5 -27.4 0.5 -2.3 0.7 -2.3 17.3 -2.3 l16.7 0.1 -2.5 1.9 c-1.4 1.1 -4 3.2 -5.9 4.8 -3.5 2.7 -23.3 17.8 -28.3 21.4 -1.6 1 -2.8 1.7 -2.8 1.5z"/>
 </g>
 <g fill="#ffac00">
  <path d="M323.9 511.1 c-3.6 -3.6 -3.9 -4.3 -3.9 -9.7 l-0.1 -5.9 28.3 -27.7 c15.6 -15.3 28.6 -27.8 29 -27.8 0.7 0 30.1 32.6 30.6 33.9 0.1 0.3 -2.1 2 -5 3.7 -2.9 1.7 -14.5 8.4 -25.8 14.9 -37.6 21.8 -39 22.5 -44.4 22.5 -4.3 0 -5.3 -0.4 -8.7 -3.9z"/>
  <path d="M252.2 474.2 c-10.7 -12 -11.1 -12.7 -9.5 -14.3 1 -1 12.8 -10.6 26.3 -21.4 13.5 -10.8 24.4 -20.3 24.4 -21 -0.1 -0.8 1 -1.7 2.5 -2 1.4 -0.3 3.9 -1.7 5.6 -3 2.5 -2.1 2.7 -2.5 1.2 -3.1 -3 -1.1 -1.8 -2.4 2.3 -2.4 3.7 0 4.1 -0.3 4.7 -3 0.6 -3.1 1.8 -3.9 2.6 -1.7 0.2 0.7 4 -1.7 9.7 -6.4 l9.3 -7.6 3 3.4 c2.5 2.9 2.8 3.6 1.6 4.4 -1 0.7 -0.7 0.8 1.1 0.3 1.4 -0.4 2.8 -1.2 3.2 -1.7 0.5 -0.8 1.4 -0.7 3.1 0.2 1.4 0.7 3.1 1.1 3.8 0.9 1.8 -0.6 5.3 2.7 4.4 4.1 -0.3 0.6 0.1 1.1 0.9 1.1 1.8 0 1.9 0.7 0.6 7 -0.6 3.2 -0.5 4.7 0.3 5.2 1.7 1.1 3.7 1 3.7 -0.2 0 -0.5 -0.7 -1 -1.5 -1 -0.8 0 -1.5 -0.9 -1.5 -2 0 -1.1 0.6 -2 1.3 -2 0.8 0 2 -1.1 2.7 -2.5 1.9 -3.6 3.2 -3.1 2.9 1.3 -0.1 2 0.1 4.6 0.4 5.7 0.8 2.3 5.9 5.5 9 5.6 1.9 0.1 1.8 0.3 -0.8 1.4 -1.6 0.8 -2.3 1.4 -1.4 1.5 2.3 0 4.9 3.2 3.2 3.7 -0.7 0.3 -1.3 1.1 -1.3 1.9 0 0.8 -1.2 1.9 -2.6 2.4 -1.4 0.6 -9 4.8 -16.8 9.3 -7.7 4.6 -22.2 13 -32.1 18.7 -9.9 5.7 -25.6 14.7 -34.9 20.2 -9.3 5.4 -17.6 9.8 -18.5 9.8 -0.9 -0.1 -6.7 -5.8 -12.9 -12.8z m107.4 -56.3 c-3.6 -2.8 -5.6 -2.3 -2.3 0.6 1.6 1.4 3.3 2.3 3.8 1.9 0.5 -0.3 -0.1 -1.4 -1.5 -2.5z"/>
  <path d="M211.1 428.4 c-6.7 -7.5 -12 -14.1 -11.8 -14.8 0.2 -0.6 4.6 -4.3 9.8 -8.3 7.7 -5.9 9.6 -7.9 10.2 -10.8 0.5 -1.9 1.5 -3.5 2.3 -3.5 0.8 0 1.4 -0.4 1.4 -1 0 -0.5 1 -1 2.3 -1 4.7 0 7.3 -1.7 27.5 -17.1 11.4 -8.8 21.5 -15.9 22.4 -15.9 0.9 0 1.9 -0.8 2.2 -1.8 0.5 -1.4 8.4 -8.3 12.2 -10.5 0.6 -0.4 7.5 6.5 16.1 16.1 8.3 9.2 16.4 18.2 18.2 20.1 1.7 1.8 3.1 3.5 3.1 3.7 0 0.2 -1.9 1.3 -4.2 2.5 -9.8 5 -17.9 10.2 -16.7 10.9 1.8 1.2 0.3 2.7 -3.5 3.4 -2.3 0.4 -4.3 1.7 -5.6 3.6 -2.3 3.2 -4.7 3.9 -5.2 1.5 -0.5 -2.4 -6.1 1.6 -8.2 5.9 -1.1 2.3 -2.4 3.6 -3.6 3.6 -1.3 0 -1.8 -0.5 -1.4 -1.5 0.7 -1.8 0.3 -1.9 -3.1 -0.3 -2.5 1.1 -3.4 2.8 -1.5 2.8 0.6 0 1 0.4 1 0.9 0 0.4 -2.1 1.1 -4.6 1.5 -4.3 0.6 -14.4 5.8 -37.1 19.2 -4.1 2.4 -8 4.4 -8.8 4.4 -0.7 0 -6.7 -6.1 -13.4 -13.6z"/>
  <path d="M385 415 c0 -2.2 0.5 -4 1 -4 0.6 0 1 -0.9 1 -2 0 -1.6 0.7 -2 3.5 -2 4.5 0 4.7 2.4 0.3 3.6 -1.9 0.6 -3.4 1.7 -3.6 2.8 -0.3 1.2 0 1.6 0.8 1.1 0.7 -0.4 2.3 -0.2 3.6 0.5 3.2 1.8 1.4 4 -3.2 4 -3.3 0 -3.4 -0.1 -3.4 -4z"/>
  <path d="M172.3 385.7 c-5.5 -6.2 -11.2 -12.7 -12.7 -14.4 l-2.6 -3.1 37.8 -28.4 37.7 -28.5 -4.2 20.6 c-2.3 11.3 -4.2 21.4 -4.3 22.4 0 1.5 1.4 1.7 15.7 1.7 13.6 0 15.5 0.2 13.8 1.4 -1.1 0.7 -9.5 5.7 -18.7 11 -9.3 5.3 -24.2 13.9 -33.3 19.1 -9.1 5.2 -17.1 9.5 -17.8 9.5 -0.7 0 -5.8 -5.1 -11.4 -11.3z"/>
  <path d="M129.4 337.9 c-10.7 -11.8 -12.5 -14.2 -11.3 -15.3 0.8 -0.7 14.5 -11.2 30.4 -23.2 16 -12 36.2 -27.3 45.1 -34 l16.1 -12.2 6.8 7.6 c11.8 13.3 19.4 21.2 20.5 21.2 0.5 0 1 0.9 1 1.9 0 1.3 -0.6 1.8 -1.7 1.6 -1 -0.1 -1.2 0 -0.5 0.2 1.5 0.5 1.5 1.5 0.1 8.5 l-1.1 5.6 -13.2 7.5 c-7.2 4.1 -21.4 12.3 -31.6 18.2 -36.5 21.2 -45.9 26.5 -46.9 26.5 -0.5 0 -6.7 -6.3 -13.7 -14.1z"/>
  <path d="M280.7 338.2 c0.3 -2 0.7 -3.9 0.9 -4 0.3 -0.5 5.3 3.1 5.4 3.9 0 0.3 -1.5 1.3 -3.4 2.2 l-3.5 1.6 0.6 -3.7z"/>
  <path d="M90 294 c-6.3 -7.1 -11.5 -13.6 -11.5 -14.3 0 -1.3 16.1 -14.1 50.5 -40.3 5.2 -4 16.3 -12.4 24.5 -18.8 8.3 -6.3 15.3 -11.5 15.7 -11.6 0.3 0 7.9 8.1 16.8 18 8.9 9.9 17 18.4 17.8 18.9 0.9 0.5 1.5 1.2 1.2 1.4 -0.6 0.6 -21.9 13 -50 29.2 -11.3 6.5 -27.7 16 -36.6 21.1 -8.8 5.2 -16.3 9.4 -16.5 9.4 -0.2 0 -5.6 -5.8 -11.9 -13z"/>
  <path d="M237.3 279.5 c-1.7 -1.9 -1.6 -2.5 0.2 -2.5 0.8 0 1.5 0.9 1.5 2 0 2.3 -0.1 2.4 -1.7 0.5z"/>
  <path d="M49.5 248.9 c-5.9 -6.6 -10.4 -12.4 -9.9 -12.8 2.4 -2 19 -15.4 37.4 -30.2 11.3 -9.1 27.6 -22.3 36.3 -29.3 13.2 -10.7 16.1 -12.6 17.2 -11.5 0.7 0.8 7.9 8.8 16 17.9 8.1 9.1 15.5 17.1 16.4 17.9 1.1 0.9 1.2 1.5 0.4 1.8 -0.6 0.2 -7.1 3.9 -14.5 8.2 -7.3 4.3 -24.1 14 -37.3 21.6 -13.2 7.6 -29.7 17.1 -36.6 21.1 -6.9 4.1 -13 7.4 -13.6 7.4 -0.6 0 -5.9 -5.4 -11.8 -12.1z"/>
  <path d="M27.3 204.1 c-2.5 -1.2 -4.8 -3.2 -5.7 -5 -2 -3.7 -2.1 -10.3 -0.2 -13.9 0.8 -1.5 16.2 -17.1 34.3 -34.8 l32.8 -32 11.5 12.8 c6.3 7.1 14.1 15.6 17.2 19 3.2 3.4 5.6 6.3 5.5 6.4 -0.1 0.1 -8.1 4.6 -17.7 10.2 -9.6 5.5 -25.8 14.8 -36 20.7 -24.2 14.1 -32.6 18.5 -35.3 18.5 -1.2 0 -4.1 -0.9 -6.4 -1.9z"/>
 </g>
 <g fill="#ffe101">
  <path d="M486.9 361.8 l-3.9 -4.3 4.2 -0.7 c2.4 -0.3 6.5 -0.7 9.2 -0.7 l4.9 -0.1 -3.9 4.4 c-2.2 2.4 -4.5 4.7 -5.3 5 -0.8 0.4 -2.8 -1 -5.2 -3.6z"/>
  <path d="M471 310.3 c0 -0.5 1.9 -10.1 4.1 -21.5 l4.2 -20.8 23.1 0 c20.1 0 22.8 0.2 21.6 1.5 -3 2.9 -51.5 41.5 -52.2 41.5 -0.5 0 -0.8 -0.3 -0.8 -0.7z"/>
  <path d="M415.3 281.3 c-1 -0.4 -6.4 -6.3 -27.6 -30 l-2 -2.2 4.4 -2.6 c22.3 -13.2 44.2 -25.5 44.6 -25.2 0.2 0.3 -2 12.5 -4.9 27.2 l-5.3 26.8 -4 3.2 c-2.2 1.8 -4.5 3 -5.2 2.8z"/>
  <path d="M382.4 229.5 l0.7 -3.5 -6.6 0 c-5.1 0 -6.5 -0.3 -6.5 -1.5 0 -1.1 -1.1 -1.5 -4.2 -1.5 -4.2 0 -4.6 -0.3 -12.8 -9.7 -4.6 -5.3 -8 -9.8 -7.3 -10 0.6 -0.2 7.3 -4.1 15 -8.6 l13.8 -8.2 22 -0.5 22 -0.5 1.7 -8 c0.9 -4.4 2.1 -10.5 2.8 -13.6 l1.1 -5.7 13.1 -7.6 c7.2 -4.2 13.3 -7.5 13.4 -7.3 0.5 0.5 -8.7 45.1 -9.4 45.8 -2 1.9 -58.2 43.9 -58.8 43.9 -0.3 0 -0.3 -1.6 0 -3.5z"/>
  <path d="M488 224.8 c0.1 -0.7 1.8 -9.6 3.8 -19.8 l3.8 -18.5 10.7 -0.3 10.8 -0.3 1.4 3.5 c2 4.8 1.9 9.5 -0.3 13.1 -1.7 2.6 -27.9 23.5 -29.6 23.5 -0.3 0 -0.6 -0.6 -0.6 -1.2z"/>
  <path d="M332.5 190.3 l-2.5 -2.8 5.6 -0.3 c6.4 -0.4 7.6 0.2 4.8 2.3 -4.5 3.6 -5.2 3.6 -7.9 0.8z"/>
  <path d="M285.8 139.6 c-0.2 -0.8 -5.3 -7.1 -11.5 -13.9 -8.3 -9.2 -10.9 -12.8 -10 -13.5 0.7 -0.5 10.4 -6.2 21.7 -12.7 11.3 -6.5 26.1 -15 33 -19 6.9 -4 24.2 -14 38.5 -22.2 14.3 -8.3 27.8 -16.1 29.9 -17.4 10.9 -6.4 23.3 0.5 22.3 12.6 -0.4 4.4 -1 5.4 -4.9 9 -2.5 2.2 -24.2 19.1 -48.4 37.6 -24.1 18.6 -45.9 35.3 -48.4 37.3 -4.4 3.5 -4.7 3.6 -13.2 3.6 -6.7 0 -8.7 -0.3 -9 -1.4z"/>
  <path d="M335.1 140.6 c0.5 -0.5 29.4 -17.4 52.4 -30.6 9.9 -5.7 25 -14.4 33.5 -19.3 8.5 -5 17.4 -9.9 19.8 -10.9 4.6 -2.1 8.8 -1.8 13 0.9 5.8 3.6 8 13.1 4.4 18.5 -1.9 2.9 -3.5 4.2 -34.5 27.6 l-18.8 14.2 -35.1 0 c-19.3 0 -34.9 -0.2 -34.7 -0.4z"/>
  <path d="M455.1 140.6 c0.2 -0.2 5.6 -3.4 11.9 -7.1 9.1 -5.5 12.3 -6.8 15.5 -6.8 7 0 12.2 4.3 13.9 11.6 l0.6 2.7 -21.1 0 c-11.7 0 -21 -0.2 -20.8 -0.4z"/>
  <path d="M249.6 97.8 c-1.4 -1.3 -8.2 -8.6 -15 -16.3 -9.5 -10.6 -12.2 -14.3 -11.3 -15.1 0.7 -0.6 7.5 -4.7 15.2 -9.1 12.2 -7 26.2 -15 71.6 -41.2 8.5 -4.8 11.5 -6.1 14.9 -6.1 5.4 0 10.3 2.9 12.4 7.4 3.2 6.7 1.3 12.9 -5.7 18.7 -6.1 5.1 -75.4 60.8 -78.3 63.1 -0.8 0.6 -2.2 0 -3.8 -1.4z"/>
  <path d="M197.4 40.5 c-2.5 -2.8 -7.3 -8 -10.5 -11.7 l-5.9 -6.6 8.4 -4.6 c5 -2.7 9.7 -4.6 11.6 -4.6 7.5 0 14 6.2 14 13.4 0 4.9 -1.8 8.1 -7.9 14.1 l-5.1 4.9 -4.6 -4.9z"/>
 </g>
 <g fill="#ff9800">
  <path d="M204.2 515.1 c-7 -4.5 -9.2 -12.9 -4.9 -19.2 2.2 -3.3 43.6 -37.1 44.8 -36.6 0.4 0.1 5.5 5.6 11.5 12.2 5.9 6.6 11.3 12.1 12.1 12.3 2.6 0.7 1.1 2.1 -7.4 6.9 -4.9 2.7 -16.9 9.6 -26.8 15.3 -19.9 11.4 -23.6 12.6 -29.3 9.1z"/>
  <path d="M134.3 486.1 c-4.6 -2.9 -6.6 -7.4 -6.1 -13.2 0.3 -2.7 1.1 -5.6 1.9 -6.5 1.2 -1.5 29.2 -23.2 61.4 -47.7 9.5 -7.2 10.1 -7.5 11.5 -5.8 5.3 6.6 23.4 26.1 24.1 26.1 2.8 0 -0.2 2.5 -8.3 7.1 -8.9 4.9 -19.9 11.3 -55.3 31.9 -13.2 7.7 -16.9 9.4 -21 9.7 -3.8 0.3 -5.8 -0.1 -8.2 -1.6z"/>
  <path d="M88 447.8 c-1.9 -0.5 -4.5 -1.9 -5.8 -3.1 -4.6 -4.3 -5.3 -13.5 -1.4 -18.3 0.9 -1.2 19.2 -15.3 40.6 -31.4 l39 -29.3 2.5 3 c10 11.7 22.7 25.3 23.8 25.3 2.4 0 1.3 1.5 -3 3.9 -6.5 3.7 -49.4 28.4 -66.7 38.5 -22 12.7 -22.9 13.1 -29 11.4z"/>
  <path d="M211.8 419.3 c-2.1 -0.5 -2.4 -2.3 -0.4 -2.3 0.8 0 1.7 -1.3 2.1 -3 0.4 -1.7 1.3 -3 2.1 -3 1.2 0 1.4 1 1.2 4.2 -0.3 4.4 -1.3 5.1 -5 4.1z"/>
  <path d="M50 399.3 c-4.9 -2.5 -8 -7.6 -8 -13 0 -3.8 0.5 -5 4.3 -8.8 2.3 -2.4 19.8 -16 38.9 -30.4 l34.7 -26.1 12.6 14 c7 7.7 13.1 14 13.6 14 2 0 0.7 1.6 -2.9 3.6 -3.8 2.1 -20.1 11.5 -59.7 34.4 -14 8.1 -24.3 13.4 -26.5 13.7 -2.2 0.2 -4.8 -0.3 -7 -1.4z"/>
  <path d="M25.3 343 c-4.7 -2.8 -6.7 -6.5 -6.6 -12.1 0.1 -7.3 -1.2 -6.1 37.8 -35.9 6.1 -4.6 13.9 -10.6 17.4 -13.3 3.4 -2.7 6.7 -4.5 7.1 -4 3.8 3.8 24 26.9 24 27.3 -0.1 0.3 -8.3 5.2 -18.3 10.9 -10 5.8 -25.4 14.7 -34.3 19.8 -17.5 10.2 -20.9 11.1 -27.1 7.3z"/>
  <path d="M17.5 280.2 c-4.8 -2.2 -7.5 -6 -8.2 -11.2 -0.9 -6.5 1.6 -9.7 17.2 -22.3 8 -6.5 14.9 -11.7 15.4 -11.7 0.5 0 5.5 5.1 11 11.4 5.6 6.3 10.7 11.7 11.4 11.9 0.7 0.2 1 0.7 0.7 1 -1.7 1.8 -38.2 21.8 -40.6 22.2 -1.8 0.3 -4.5 -0.2 -6.9 -1.3z"/>
 </g>
 <g fill="#ffffff">
  <path d="M707 477.6 c0 -1.2 3.4 -18.2 5.5 -27.3 0.5 -2.1 1.1 -2.3 7.6 -2.3 11.5 0 16.9 4 16.9 12.4 0 7.2 -4.3 13.4 -11.5 16.7 -5.1 2.4 -18.5 2.7 -18.5 0.5z m17.8 -3.6 c5.3 -2.4 8.8 -9 7.8 -14.8 -0.8 -5.3 -3.4 -7.3 -10.3 -7.9 l-6 -0.5 -2.1 10.8 c-3 14.8 -3.1 14.4 2.1 14.4 2.3 0 6.1 -0.9 8.5 -2z"/>
  <path d="M744.2 478.3 c-2.3 -0.9 -4.4 -6.4 -3.8 -9.8 1.6 -8.1 11.2 -13.9 17.6 -10.5 2.2 1.2 4 6.1 3.3 8.9 -0.5 1.9 -1.3 2.1 -8.4 2.1 -4.3 0 -8.1 0.5 -8.4 1 -0.4 0.6 0.1 2.2 0.9 3.5 1.9 2.9 6 3.3 9.2 1.1 1.2 -0.9 2.6 -1.1 3.4 -0.6 1 0.6 0.5 1.3 -2.1 2.9 -3.2 1.9 -8.7 2.6 -11.7 1.4z m12.8 -14.3 c0 -4.5 -7.6 -4.8 -10.5 -0.4 l-1.5 2.4 6 0 c5.3 0 6 -0.2 6 -2z"/>
  <path d="M766.7 477.2 c-2.1 -2.3 -2.1 -2.8 -0.1 -3.6 0.8 -0.3 2.2 0.1 3 0.9 2 1.9 5.8 1.9 7.4 0 1.9 -2.3 0.5 -4.3 -3.9 -5.5 -2.3 -0.6 -4.5 -1.8 -5 -2.8 -1.3 -2.5 0.4 -5.9 3.8 -7.6 3.9 -2 7.1 -2 10 0 2 1.5 2.1 1.8 0.7 2.6 -1 0.5 -2.4 0.5 -3.7 -0.3 -1.6 -0.8 -2.8 -0.8 -4.5 0 -3.5 1.6 -2.9 3.8 1.4 5.2 5.1 1.6 6.2 2.7 6.2 5.9 0 6 -11.2 9.7 -15.3 5.2z"/>
  <path d="M790.1 476.4 c-2.6 -3.3 -2.7 -6.6 -0.1 -11.9 3.2 -6.5 10.1 -9.4 14.6 -6 2.4 1.8 3.4 1.9 3.4 0 0 -0.7 0.5 -3.7 1.1 -6.5 0.9 -4 1.5 -5 3.1 -5 1.2 0 1.8 0.5 1.6 1.3 -0.3 0.6 -1.8 7.8 -3.4 16 -2.4 12.4 -3.1 14.7 -4.6 14.7 -1 0 -1.8 -0.7 -1.8 -1.6 0 -1.5 -0.2 -1.5 -2.5 0 -3.9 2.5 -9 2.1 -11.4 -1z m13 -3.3 c2.1 -2.2 2.9 -3.9 2.9 -6.5 0 -9.7 -13 -6.8 -13.3 3 -0.2 6.6 5.4 8.5 10.4 3.5z"/>
  <path d="M818.1 476.4 c-7.6 -9.7 6.7 -24.9 16.3 -17.3 2 1.6 2.6 2.9 2.6 6 l0 3.9 -8.5 0 c-7.7 0 -8.5 0.2 -8.5 1.9 0 1.1 0.8 2.7 1.7 3.6 1.6 1.7 3.4 1.7 10.3 0 l2.5 -0.7 -2.8 2.6 c-4 3.7 -10.7 3.7 -13.6 0z m14.9 -11.8 c0 -2 -2.8 -4.6 -4.9 -4.6 -2 0 -7.1 3.6 -7.1 5.1 0 0.5 2.7 0.9 6 0.9 4.5 0 6 -0.3 6 -1.4z"/>
  <path d="M857 478.3 c0 -0.5 1.1 -6.6 2.4 -13.7 2.2 -12.4 2.2 -12.9 0.5 -13.3 -1.1 -0.3 -1.9 -1.2 -1.9 -1.9 0 -1 1.3 -1.4 4.3 -1.4 l4.4 0 -3.1 15.5 c-2.6 13.1 -3.3 15.5 -4.8 15.5 -1 0 -1.8 -0.3 -1.8 -0.7z"/>
  <path d="M878.3 474.2 c2.6 -2.6 4.7 -5.1 4.7 -5.5 0 -0.4 -1.8 -0.7 -3.9 -0.7 -3.1 0 -4.4 -0.6 -6 -2.6 -2.5 -3.1 -2.6 -5.5 -0.6 -9.3 2.6 -5.1 7.1 -8.1 12.1 -8.1 8.8 0 12.1 7.6 6.8 15.6 -4.1 6.1 -13.6 15.4 -15.8 15.4 -1.6 0 -1.1 -0.9 2.7 -4.8z m8.9 -11 c1 -0.8 2 -3 2.4 -4.9 1.3 -6.7 -6.1 -9.9 -11.2 -4.8 -2 2 -2.5 3.3 -2.2 6.7 0.3 3.6 0.7 4.3 2.8 4.8 3.1 0.8 6 0.2 8.2 -1.8z"/>
  <path d="M900 477 c-2.6 -2.6 -2.6 -6 -0.1 -6 1 0 2.1 0.9 2.4 2 0.6 2.2 4.6 3.5 8.2 2.6 4.2 -1.1 7.2 -9.5 4.3 -12.4 -1.9 -1.9 -7.3 -1.4 -10.2 0.9 -4.8 3.7 -5.4 2.4 -3.7 -7.1 l1.6 -8.5 9.8 -0.3 c7.7 -0.2 9.8 0 9.5 1 -0.3 0.9 -2.9 1.4 -7.7 1.6 -6.6 0.3 -7.3 0.5 -8.1 2.8 -0.6 1.4 -1 3.6 -1 5 0 2.1 0.3 2.3 1.9 1.4 3.3 -1.7 8.9 -1.2 11.1 1 4.1 4.1 1.3 13.2 -4.9 16.5 -4.3 2.2 -10.6 2 -13.1 -0.5z"/>
  <path d="M929.1 476.8 c-2.1 -1.9 -2.3 -2.8 -1.9 -9.2 0.5 -7.9 3.2 -14.2 7.4 -17.5 3.7 -2.9 11.4 -2.9 14 0 4.7 5.2 0.3 23.8 -6.5 27.3 -4.4 2.3 -10.2 2.1 -13 -0.6z m12.4 -3.2 c4.1 -4.1 6.4 -17.6 3.6 -21 -1.8 -2.2 -6.7 -2 -9 0.3 -4.4 4.4 -6.8 20 -3.3 22 2.9 1.7 6.2 1.2 8.7 -1.3z"/>
  <path d="M360.2 428.9 c0.2 -0.8 1.8 -1.5 3.4 -1.7 4 -0.5 5.5 -2.1 2.6 -2.8 -1.3 -0.4 -2.2 -1.4 -2.2 -2.5 0 -1.1 -1.1 -2.4 -2.4 -3 -4.8 -2.2 -5.9 -8.5 -2.6 -14.9 3.8 -7.4 14.1 -9.9 18.8 -4.4 l2.4 2.8 -2.2 0.8 c-1.4 0.5 -2.9 0.3 -4.3 -0.7 -3.1 -2.1 -5.4 -1.9 -8.3 1 -2 2 -2.5 3.3 -2.2 6.8 0.3 3.8 0.6 4.2 3.2 4.5 1.6 0.2 3.9 -0.2 5.2 -0.9 1.2 -0.6 3 -0.9 3.9 -0.5 1.5 0.5 1.5 0.9 0.4 2.3 -0.8 0.9 -3.1 2.4 -5.1 3.3 l-3.8 1.7 2.5 1.1 c4.9 2.3 1.6 7 -5.6 7.9 -3.3 0.5 -4.1 0.3 -3.7 -0.8z"/>
  <path d="M213 419.1 c0 -2.3 3.2 -17.8 4 -19.6 0.5 -1.1 1.3 -4 1.7 -6.5 l0.9 -4.5 10.7 -0.3 c5.9 -0.1 10.7 0.1 10.7 0.5 -0.1 2.8 -2 3.4 -9.6 3.2 l-7.9 -0.2 -0.6 2.9 c-1.4 6.4 -1.4 6.4 5.1 6.4 6 0 6.6 0.4 5.4 3.4 -0.5 1.2 -2 1.6 -6.4 1.6 -6.3 0 -6.2 -0.2 -7.5 7 -1.2 6.3 -1.6 7 -4.1 7 -1.3 0 -2.4 -0.4 -2.4 -0.9z"/>
  <path d="M239.9 417.1 c-3.5 -3.5 -3.8 -7.5 -0.9 -13.1 5.8 -11.4 23.1 -8.7 20.5 3.2 -0.7 2.8 -0.7 2.8 -8.6 2.8 -7.8 0 -8 0.1 -7.7 2.3 0.2 1.7 1.1 2.3 3.7 2.5 1.9 0.2 4.5 -0.2 5.8 -0.9 1.7 -0.9 2.6 -1 3.4 -0.2 1.5 1.5 0.6 2.8 -3.5 4.7 -5.3 2.5 -9.3 2.1 -12.7 -1.3z m14.1 -12.4 c0 -3.6 -5.1 -4.9 -8.2 -2 -2.9 2.6 -2.2 3.3 3.2 3.3 3.4 0 5 -0.4 5 -1.3z"/>
  <path d="M294.2 417.9 c-2.9 -3.1 -3.5 -5.3 -2.8 -10.4 1.3 -8.1 9.9 -13.3 16 -9.7 4.1 2.4 6.1 6.1 5.2 9.6 l-0.7 2.8 -7.9 -0.6 c-8.3 -0.8 -9.6 -0.2 -8.5 3.4 0.5 1.6 1.5 2 4.6 2 2.2 0 4.7 -0.5 5.8 -1.1 1.2 -0.8 2.3 -0.9 3.6 -0.2 1.5 0.9 1.4 1.2 -1.5 3.3 -1.7 1.2 -5.1 2.5 -7.4 2.7 -3.6 0.4 -4.7 0.1 -6.4 -1.8z m13.8 -13.1 c-0.1 -5.2 -8.3 -5.8 -11 -0.8 -1 1.9 -0.8 2 5 2 4.1 0 6 -0.4 6 -1.2z"/>
  <path d="M315.9 419.5 c-0.4 -0.3 0.4 -5.4 1.5 -11.3 1.8 -8.6 2.5 -10.8 4 -11 1 -0.2 2.2 0.2 2.7 0.9 0.6 1.1 1.1 1.1 2.1 0.1 2 -2 5.8 -1.5 5.8 0.8 0 1.3 -0.7 2 -1.9 2 -4 0 -6.9 4.1 -8.3 11.5 -1.1 5.7 -1.7 7.1 -3.4 7.3 -1.1 0.2 -2.2 0 -2.5 -0.3z"/>
  <path d="M334.2 418.4 c-6.1 -4.2 0.8 -12.4 10.4 -12.4 3.1 0 3.5 -0.3 3.2 -2.2 -0.4 -2.9 -4.3 -3.6 -6.8 -1.3 -1.2 1.1 -2.6 1.4 -4 1 l-2.2 -0.7 2.3 -2.4 c4.3 -4.6 12.7 -5.1 15.5 -0.9 1.2 1.9 1.2 3.2 -0.4 11.1 -1.6 7.8 -2.1 8.9 -4 9.2 -1.5 0.2 -2.2 -0.2 -2.2 -1.3 0 -1.5 -0.2 -1.5 -2.2 -0.1 -1.2 0.9 -3.4 1.6 -4.8 1.6 -1.4 0 -3.6 -0.7 -4.8 -1.6z m9.1 -3.5 c4.4 -2.4 4.9 -4.9 0.9 -4.9 -3.7 0 -6.7 2.2 -5.9 4.4 0.8 1.9 2 2 5 0.5z"/>
  <path d="M396.1 418.3 c-0.8 -1.5 -1.3 -1.6 -3 -0.5 -1.2 0.6 -3.9 1.2 -6.1 1.2 -4.9 0 -6.8 -2.6 -5 -7 1.4 -3.4 4.1 -4.9 10.5 -5.8 4.1 -0.6 5 -1.1 5 -2.7 0 -2.7 -3.2 -3.1 -7.2 -0.9 -2.5 1.3 -3.6 1.5 -4.5 0.6 -0.9 -0.9 -0.7 -1.7 0.7 -3.2 4.3 -4.8 14.9 -4.3 16.1 0.7 0.4 1.4 0 4.8 -1 7.8 -0.9 2.8 -1.6 6.6 -1.6 8.3 0 3.6 -2.2 4.4 -3.9 1.5z m-1.1 -4.4 c1.6 -2.9 1.2 -3.9 -1.8 -3.9 -3.6 0 -6.7 2.2 -5.9 4.3 0.8 2.2 6.5 1.9 7.7 -0.4z"/>
  <path d="M409.6 417.8 c-6.2 -5.5 -1.9 -18.2 7 -20.7 4.5 -1.3 10 0.3 12 3.5 2.1 3 1.4 9.6 -1.3 13.3 -4.4 5.9 -13.2 7.8 -17.7 3.9z m12.3 -5.2 c2.5 -2.7 3.1 -7.7 1.1 -10.1 -3.6 -4.4 -11 0.8 -11 7.8 0 5 6 6.5 9.9 2.3z"/>
  <path d="M264.6 416.8 c-3.3 -4.7 -1 -14.1 4.5 -18.1 3 -2.1 9.2 -2.5 11.4 -0.7 1.7 1.4 1.9 1 3.2 -6 0.8 -4 1.2 -4.5 3.7 -4.8 2.3 -0.3 2.7 0 2.3 1.5 -0.3 1 -0.8 3.4 -1.2 5.3 -3.7 19.7 -7 28.4 -8.9 23.4 -0.5 -1.4 -0.8 -1.4 -2.8 0 -3.5 2.5 -10.3 2.1 -12.2 -0.6z m12.3 -1.8 c1 -0.5 2.4 -3 3.1 -5.5 1.1 -4.1 1.1 -4.8 -0.5 -6.5 -1 -1.1 -2.6 -2 -3.5 -2 -2.8 0 -6.7 3.7 -7.3 7 -0.8 3.8 0 5.9 2.7 7 2.8 1.2 3.4 1.2 5.5 0z"/>
  <path d="M448.8 417.3 c-3.8 -4.3 -3 -12.9 1.6 -17.2 3.8 -3.6 8.1 -4.3 12.1 -2 l3.4 2.1 0.7 -2.7 c0.3 -1.4 0.8 -4 0.9 -5.8 0.2 -1.8 0.3 -3.5 0.4 -3.9 0.2 -1.4 4.1 -0.8 4.1 0.6 0 1.2 -4.2 22.7 -5.5 28.4 -0.6 2.4 -3.5 3.1 -3.5 0.7 0 -1.9 -0.9 -1.9 -3.4 0 -2.7 2.1 -8.9 1.9 -10.8 -0.2z m11.9 -2.8 c3 -2.1 4.6 -7.5 3.4 -10.9 -0.9 -2.2 -1.7 -2.6 -4.8 -2.6 -3.2 0 -4.2 0.6 -6 3.3 -1.3 1.8 -2.3 4.5 -2.3 5.9 0 5.2 5.2 7.4 9.7 4.3z"/>
  <path d="M476.3 416.4 c-2.1 -2.1 -2.5 -3.2 -2 -6.5 0.9 -7 5.2 -11.5 12.1 -12.6 10.2 -1.6 13.6 10.7 5.2 18.5 -4.7 4.3 -11.3 4.6 -15.3 0.6z m11.2 -1 c3.6 -1.4 5.9 -10.6 3.3 -13.2 -2 -2 -7.5 -1.4 -9.7 0.9 -6.1 6.5 -1.5 15.3 6.4 12.3z"/>
  <path d="M501.5 416.8 c-1.4 -2.1 -1.4 -2.3 0.2 -2.9 1.1 -0.4 2.1 -0.1 2.6 0.7 0.9 1.6 5.5 1.8 7.5 0.5 2.5 -1.6 0.8 -4.3 -3.8 -6 -3.9 -1.4 -4.5 -2.1 -4.8 -4.8 -0.2 -2.3 0.3 -3.5 2 -4.7 3.7 -2.6 8.5 -3.1 11.4 -1.1 3.6 2.3 1.7 4.3 -2.5 2.6 -2.2 -1 -3.4 -1 -5.1 -0.1 -3.2 1.7 -2.1 4.3 2.3 5.3 4.7 1.1 7.3 4.6 5.8 7.6 -2.9 5.4 -12.6 7.1 -15.6 2.9z"/>
  <path d="M536 418.1 c0 -0.8 4.5 -23.5 5.5 -27.8 0.5 -2.2 1 -2.3 10.5 -2.3 8.2 0 10 0.3 10 1.5 0 1.2 -1.6 1.5 -8 1.5 -8.8 0 -9.3 0.4 -10.2 7.6 -0.3 2.9 -0.3 2.9 5.5 3.2 4.2 0.2 5.7 0.7 5.7 1.7 0 1.2 -1.4 1.5 -5.9 1.5 -3.3 0 -6.2 0.4 -6.5 0.9 -0.4 0.5 -0.9 3 -1.2 5.5 l-0.7 4.6 8.1 0 c6.8 0 8 0.2 7.6 1.5 -0.5 1.2 -2.6 1.5 -10.5 1.5 -5.4 0 -9.9 -0.4 -9.9 -0.9z"/>
  <path d="M564.4 416.9 c-1.6 -1.7 -1.6 -2.2 -0.4 -2.9 2.1 -1.3 2.7 -1.2 3.4 0.5 0.7 1.9 6 2 7.6 0 1.9 -2.2 0.6 -4 -3.8 -5.3 -4.8 -1.5 -6.6 -3.4 -5.7 -6.2 0.9 -2.7 6.2 -6 9.6 -6 1.5 0 3.7 0.9 5 1.9 2 1.6 2.1 2 0.8 2.6 -0.8 0.3 -2.8 0.1 -4.3 -0.5 -3.3 -1.2 -6.9 0.3 -6.4 2.7 0.2 0.8 2.3 2.3 4.8 3.2 3.9 1.4 4.5 2.1 4.8 4.8 0.2 2.4 -0.3 3.6 -2.4 5.2 -3.6 2.8 -10.4 2.9 -13 0z"/>
  <path d="M589.5 417.3 c-1.2 -1.2 -1.5 -2.6 -1.1 -5.2 0.3 -2 0.9 -5.3 1.2 -7.3 0.6 -3.2 0.4 -3.8 -1.1 -3.8 -1.1 0 -1.5 -0.5 -1.1 -1.6 0.3 -0.9 0.6 -1.8 0.6 -2 0 -0.2 0.7 -0.4 1.5 -0.4 0.9 0 1.8 -1.2 2.2 -3 0.4 -2.1 1.1 -3 2.5 -3 1.7 0 1.9 0.5 1.3 3 -0.6 2.7 -0.4 3 1.9 3 1.9 0 2.6 0.5 2.6 2 0 1.5 -0.7 2 -2.9 2 -2.7 0 -2.9 0.3 -4.1 6.4 -1.2 6.7 -0.9 8.6 1.6 8.6 0.8 0 1.4 0.7 1.4 1.5 0 2.1 -4.4 1.9 -6.5 -0.2z"/>
  <path d="M604.6 417.4 c-2.2 -2.2 -2.1 -4.8 0.9 -18.1 0.3 -1.4 1.3 -2.3 2.4 -2.3 1.7 0 1.7 0.4 0.3 7.9 -1.7 8.8 -1 11.1 3.4 11.1 4.2 0 6.3 -3.8 8 -14.7 0.5 -3.3 1.1 -4.3 2.5 -4.3 2.3 0 2.3 -0.3 -0.1 11.5 -1.1 5.3 -2 9.9 -2 10.1 0 0.2 -0.9 0.4 -2 0.4 -1.1 0 -2 -0.5 -2 -1 0 -0.7 -0.6 -0.7 -1.9 0 -2.9 1.5 -7.7 1.2 -9.5 -0.6z"/>
  <path d="M630.6 417.4 c-5.7 -5.6 -0.5 -18.4 8 -20 2.3 -0.4 4.2 -0.1 5.9 1 3 2 3.5 2 3.5 0.1 0 -0.7 0.5 -3.7 1.1 -6.5 0.9 -4 1.5 -5 3.1 -5 1.2 0 1.8 0.5 1.6 1.3 -0.3 0.6 -1.8 7.8 -3.4 16 -2.4 12.4 -3.1 14.7 -4.6 14.7 -1 0 -1.8 -0.7 -1.8 -1.6 0 -1.5 -0.2 -1.5 -2.5 0 -3.1 2 -8.9 2.1 -10.9 0z m12.5 -4.3 c3.2 -3.3 4 -8.9 1.5 -11 -4.3 -3.5 -11.9 1.5 -11.9 7.8 0 6.5 5.4 8.1 10.4 3.2z"/>
  <path d="M656.3 417.9 c-0.7 -0.7 -1.3 -2.6 -1.3 -4.1 0 -3.6 4.3 -6.4 11.1 -7.3 4.3 -0.6 4.9 -1 4.9 -3.1 0 -3.4 -4.3 -4.3 -7.9 -1.6 -3.7 2.7 -6 1.4 -2.7 -1.7 3.4 -3.2 9.5 -3.9 12.6 -1.3 2.4 2 2.4 2 1.1 9.7 -1.6 9.9 -1.9 10.5 -4.3 10.5 -1.2 0 -1.7 -0.4 -1.2 -1.2 0.5 -0.8 0 -0.9 -1.7 -0.3 -4.7 1.5 -9.4 1.6 -10.6 0.4z m11.7 -3.9 c1.1 -1.1 2 -2.7 2 -3.6 0 -1.4 -0.8 -1.6 -4.1 -1.1 -4.7 0.6 -7.5 2.8 -6.6 5.1 0.9 2.3 6.3 2 8.7 -0.4z"/>
  <path d="M679.3 416.8 c0.3 -1.3 1.3 -6.2 2.3 -11 1.4 -7.3 2 -8.8 3.5 -8.8 1.1 0 1.9 0.6 1.9 1.4 0 1.3 0.4 1.3 2.8 0 3.5 -1.8 5.2 -1.8 8 0.2 2.6 1.8 2.8 4.6 1 14 -0.9 5.2 -1.5 6.4 -3.1 6.4 -1.7 0 -1.8 -0.4 -1.1 -4.2 0.5 -2.4 0.9 -6.3 0.9 -8.8 0 -4.4 -0.1 -4.5 -3.3 -4.8 -1.8 -0.2 -4 0.2 -4.7 0.8 -0.8 0.7 -2.2 4.8 -3.1 9.1 -1.5 6.6 -2.1 7.9 -3.7 7.9 -1.5 0 -1.8 -0.5 -1.4 -2.2z"/>
  <path d="M708.6 416.8 c-1.5 -2.3 -1.4 -3.2 0.9 -13.5 0.4 -1.6 0.1 -2.3 -1 -2.3 -0.8 0 -1.5 -0.9 -1.5 -2 0 -1.3 0.7 -2 1.9 -2 1.3 0 2 -0.9 2.5 -3 0.4 -2 1.1 -3 2.4 -3 1.5 0 1.8 0.6 1.4 3 -0.4 2.7 -0.1 3 2.1 3 2 0 2.4 0.4 2 2 -0.3 1.3 -1.4 2 -2.9 2 -3 0 -3.3 0.6 -4.1 8 -0.6 5.7 -0.4 6.1 1.6 6.7 3.2 0.8 2.6 3.3 -0.9 3.3 -2 0 -3.4 -0.8 -4.4 -2.2z"/>
  <path d="M724.2 416.7 c-4.6 -4.9 -1.6 -14.8 5.4 -18.2 7 -3.3 13.4 0.2 13.4 7.2 l0 3.3 -8.5 0 c-7.7 0 -8.5 0.2 -8.5 1.9 0 4.3 5.5 6.5 10.1 4 1.1 -0.5 2.8 -0.9 3.7 -0.7 1.3 0.3 0.8 1 -1.8 2.6 -4.8 3 -10.9 3 -13.8 -0.1z m14.8 -12.2 c0 -2.1 -4.4 -4.7 -6.6 -3.9 -2.4 0.9 -5.4 3.4 -5.4 4.6 0 0.4 2.7 0.8 6 0.8 4.6 0 6 -0.3 6 -1.5z"/>
  <path d="M748.6 417.4 c-0.9 -0.8 -1.6 -1.9 -1.6 -2.4 0 -1.5 2.9 -1.9 4 -0.4 1.6 1.8 6.4 1.8 8 -0.1 1.7 -2.1 0.6 -4.1 -2.7 -4.9 -1.5 -0.4 -3.8 -1.4 -5 -2.2 -6.5 -4.2 3.2 -12.5 11 -9.5 3.4 1.3 3.1 3.7 -0.4 3.3 -4.9 -0.6 -7.2 -0.4 -8 0.9 -1.1 1.8 0.2 3 5.4 4.9 5.3 2 6.2 5.6 2.3 9.5 -3 3 -10.4 3.5 -13 0.9z"/>
  <path d="M782.3 417.3 c0.3 -1 1.8 -8 3.3 -15.6 2.7 -13.3 2.9 -13.8 5.2 -13.5 1.9 0.2 3 1.7 5.3 7.3 6.5 15.3 7 16.1 7.9 14.5 0.4 -0.8 1.5 -5.3 2.5 -10 2.3 -11.7 2.4 -12 4.6 -12 1.5 0 1.9 0.5 1.5 1.8 -0.3 0.9 -1.7 7.9 -3.2 15.5 -2.6 13.4 -2.8 13.8 -5.2 13.5 -2 -0.3 -3.1 -1.9 -7 -11.3 -2.5 -6 -4.7 -11.2 -4.9 -11.4 -0.8 -1.1 -1.7 1.7 -3.7 11.6 -2 9.8 -2.4 10.8 -4.5 11.1 -1.8 0.3 -2.2 0 -1.8 -1.5z"/>
  <path d="M815.5 417.4 c-1.8 -1.8 -1.2 -4.9 1.5 -7.7 0.9 -1 4.4 -2.4 7.6 -3 6.4 -1.3 8.2 -3.7 4.4 -5.7 -2.3 -1.2 -5.2 -0.6 -7.3 1.5 -0.8 0.8 -1.9 1 -2.7 0.5 -3.5 -2.1 6.2 -6.9 11.4 -5.6 4.2 1 4.7 3.4 2.9 13 -1.4 7 -2 8.6 -3.5 8.6 -1 0 -1.8 -0.7 -1.8 -1.6 0 -1.4 -0.2 -1.4 -2.2 0 -2.9 2.1 -8.2 2 -10.3 0z m11.7 -3.1 c2.7 -2.4 2.3 -5.3 -0.6 -5.3 -4.6 0 -7.6 1.8 -7.6 4.5 0 2.1 0.4 2.5 3.2 2.5 1.7 0 4 -0.7 5 -1.7z"/>
  <path d="M841.5 416.5 c-7.9 -7.8 4.9 -23.2 15.2 -18.3 3.4 1.6 4.4 4.8 1.4 4.8 -1.1 0 -2.3 -0.4 -2.6 -1 -1.2 -1.9 -7.1 -1.1 -9.2 1.3 -6.5 7.1 -0.4 16.7 7.3 11.3 1.2 -0.9 2.6 -1.1 3.4 -0.6 2.1 1.3 -4.8 5 -9.3 5 -2.7 0 -4.5 -0.7 -6.2 -2.5z"/>
  <path d="M865 417.6 c0 -1.3 2.1 -12.1 3.5 -18.3 0.3 -1.4 1.3 -2.3 2.4 -2.3 1.7 0 1.7 0.4 -0.3 10.7 -1.7 8.3 -2.6 10.9 -3.9 11.1 -1 0.2 -1.7 -0.3 -1.7 -1.2z"/>
  <path d="M879.3 416.4 c-6.8 -6.8 3 -20.9 13.2 -19 4.7 0.9 7.8 5.1 7.1 9.5 -1.6 10.1 -13.9 15.9 -20.3 9.5z m13.1 -3 c2.8 -2.9 3.6 -9 1.4 -11.2 -2 -2 -7.5 -1.4 -9.7 0.9 -7.2 7.7 0.9 17.7 8.3 10.3z"/>
  <path d="M903.7 416.3 c0.3 -1.6 1.4 -6.4 2.3 -10.8 1.2 -5.9 2 -8.1 3.3 -8.3 1 -0.2 1.7 0.3 1.7 1.2 0 1.4 0.3 1.4 3.4 -0.1 4.2 -2 8.3 -1.1 9.5 2 0.5 1.3 0.5 4.5 0 7.3 -0.5 2.7 -1.1 6.4 -1.4 8.2 -0.4 2.3 -1.1 3.2 -2.6 3.2 -1.5 0 -1.8 -0.5 -1.4 -2.2 2.9 -12.4 2.4 -15.8 -2.5 -15.8 -4 0 -5.7 2.1 -7 8.8 -1.7 8.6 -2 9.2 -4.1 9.2 -1.6 0 -1.8 -0.4 -1.2 -2.7z"/>
  <path d="M930.2 417.8 c-1.3 -1.3 -1.5 -3.7 -0.6 -6.3 0.9 -2.2 5 -4.2 10.7 -5 3.5 -0.5 4.7 -1.2 4.7 -2.4 0 -4.1 -4.3 -5.3 -8.2 -2.2 -3.4 2.7 -5.6 1.2 -2.5 -1.8 3.3 -3.1 9 -3.8 12.3 -1.6 2.9 1.9 2.9 3.4 0.4 15.3 -0.9 4.1 -1.6 5.2 -3.1 5.2 -1.1 0 -1.9 -0.7 -1.9 -1.7 0 -1.5 -0.1 -1.5 -1.8 0 -2.2 2 -8.3 2.2 -10 0.5z m10.4 -2.6 c1.2 -0.7 3.4 -4.6 3.4 -5.8 0 -1.2 -8.2 0.4 -9.8 1.9 -2.1 2.2 -0.8 4.7 2.5 4.7 1.5 0 3.3 -0.4 3.9 -0.8z"/>
  <path d="M953.2 417.8 c0.3 -0.7 1.8 -7.9 3.4 -16 2.4 -12.5 3.1 -14.8 4.6 -14.8 2.3 0 2.3 0.4 -0.6 14.7 -3.6 17.4 -3.6 17.3 -5.8 17.3 -1.2 0 -1.8 -0.5 -1.6 -1.2z"/>
  <path d="M396.2 393.9 c-1.3 -0.5 -3.6 -0.6 -5 -0.2 -2.7 0.6 -2.7 0.6 -0.9 -1.5 1.5 -1.7 2.9 -2 7.3 -1.9 5.5 0.2 6.3 1.1 2.8 3.3 -1.3 0.8 -2.7 0.9 -4.2 0.3z"/>
  <path d="M870.1 391.6 c-0.9 -1.1 -0.8 -1.8 0.5 -3 1.9 -1.9 3.8 -1.6 4.2 0.7 0.5 2.3 -3.2 4.1 -4.7 2.3z"/>
 </g>
</svg>
