<svg xmlns="http://www.w3.org/2000/svg" width="256" height="256" viewBox="0 0 256 256" role="img" aria-label="QR Code de exemplo">
  <rect width="256" height="256" fill="#fff"/>
  <rect x="81.92" y="0" width="10.24" height="10.24" fill="#000"/><rect x="92.16" y="0" width="10.24" height="10.24" fill="#000"/><rect x="133.12" y="0" width="10.24" height="10.24" fill="#000"/><rect x="143.36" y="0" width="10.24" height="10.24" fill="#000"/><rect x="153.6" y="0" width="10.24" height="10.24" fill="#000"/><rect x="163.84" y="0" width="10.24" height="10.24" fill="#000"/><rect x="92.16" y="10.24" width="10.24" height="10.24" fill="#000"/><rect x="112.64" y="10.24" width="10.24" height="10.24" fill="#000"/><rect x="133.12" y="10.24" width="10.24" height="10.24" fill="#000"/><rect x="112.64" y="20.48" width="10.24" height="10.24" fill="#000"/><rect x="122.88" y="20.48" width="10.24" height="10.24" fill="#000"/><rect x="133.12" y="20.48" width="10.24" height="10.24" fill="#000"/><rect x="143.36" y="20.48" width="10.24" height="10.24" fill="#000"/><rect x="163.84" y="20.48" width="10.24" height="10.24" fill="#000"/><rect x="81.92" y="30.72" width="10.24" height="10.24" fill="#000"/><rect x="143.36" y="30.72" width="10.24" height="10.24" fill="#000"/><rect x="153.6" y="30.72" width="10.24" height="10.24" fill="#000"/><rect x="81.92" y="40.96" width="10.24" height="10.24" fill="#000"/><rect x="92.16" y="40.96" width="10.24" height="10.24" fill="#000"/><rect x="102.4" y="40.96" width="10.24" height="10.24" fill="#000"/><rect x="122.88" y="40.96" width="10.24" height="10.24" fill="#000"/><rect x="163.84" y="40.96" width="10.24" height="10.24" fill="#000"/><rect x="92.16" y="51.2" width="10.24" height="10.24" fill="#000"/><rect x="112.64" y="51.2" width="10.24" height="10.24" fill="#000"/><rect x="143.36" y="51.2" width="10.24" height="10.24" fill="#000"/><rect x="153.6" y="51.2" width="10.24" height="10.24" fill="#000"/><rect x="92.16" y="61.44" width="10.24" height="10.24" fill="#000"/><rect x="102.4" y="61.44" width="10.24" height="10.24" fill="#000"/><rect x="112.64" y="61.44" width="10.24" height="10.24" fill="#000"/><rect x="122.88" y="61.44" width="10.24" height="10.24" fill="#000"/><rect x="133.12" y="61.44" width="10.24" height="10.24" fill="#000"/><rect x="153.6" y="61.44" width="10.24" height="10.24" fill="#000"/><rect x="163.84" y="61.44" width="10.24" height="10.24" fill="#000"/><rect x="81.92" y="71.68" width="10.24" height="10.24" fill="#000"/><rect x="102.4" y="71.68" width="10.24" height="10.24" fill="#000"/><rect x="112.64" y="71.68" width="10.24" height="10.24" fill="#000"/><rect x="122.88" y="71.68" width="10.24" height="10.24" fill="#000"/><rect x="133.12" y="71.68" width="10.24" height="10.24" fill="#000"/><rect x="143.36" y="71.68" width="10.24" height="10.24" fill="#000"/><rect x="153.6" y="71.68" width="10.24" height="10.24" fill="#000"/><rect x="10.24" y="81.92" width="10.24" height="10.24" fill="#000"/><rect x="40.96" y="81.92" width="10.24" height="10.24" fill="#000"/><rect x="51.2" y="81.92" width="10.24" height="10.24" fill="#000"/><rect x="61.44" y="81.92" width="10.24" height="10.24" fill="#000"/><rect x="71.68" y="81.92" width="10.24" height="10.24" fill="#000"/><rect x="81.92" y="81.92" width="10.24" height="10.24" fill="#000"/><rect x="92.16" y="81.92" width="10.24" height="10.24" fill="#000"/><rect x="112.64" y="81.92" width="10.24" height="10.24" fill="#000"/><rect x="122.88" y="81.92" width="10.24" height="10.24" fill="#000"/><rect x="163.84" y="81.92" width="10.24" height="10.24" fill="#000"/><rect x="184.32" y="81.92" width="10.24" height="10.24" fill="#000"/><rect x="204.8" y="81.92" width="10.24" height="10.24" fill="#000"/><rect x="225.28" y="81.92" width="10.24" height="10.24" fill="#000"/><rect x="0" y="92.16" width="10.24" height="10.24" fill="#000"/><rect x="30.72" y="92.16" width="10.24" height="10.24" fill="#000"/><rect x="51.2" y="92.16" width="10.24" height="10.24" fill="#000"/><rect x="61.44" y="92.16" width="10.24" height="10.24" fill="#000"/><rect x="102.4" y="92.16" width="10.24" height="10.24" fill="#000"/><rect x="112.64" y="92.16" width="10.24" height="10.24" fill="#000"/><rect x="122.88" y="92.16" width="10.24" height="10.24" fill="#000"/><rect x="133.12" y="92.16" width="10.24" height="10.24" fill="#000"/><rect x="143.36" y="92.16" width="10.24" height="10.24" fill="#000"/><rect x="163.84" y="92.16" width="10.24" height="10.24" fill="#000"/><rect x="184.32" y="92.16" width="10.24" height="10.24" fill="#000"/><rect x="194.56" y="92.16" width="10.24" height="10.24" fill="#000"/><rect x="215.04" y="92.16" width="10.24" height="10.24" fill="#000"/><rect x="225.28" y="92.16" width="10.24" height="10.24" fill="#000"/><rect x="235.52" y="92.16" width="10.24" height="10.24" fill="#000"/><rect x="245.76" y="92.16" width="10.24" height="10.24" fill="#000"/><rect x="0" y="102.4" width="10.24" height="10.24" fill="#000"/><rect x="10.24" y="102.4" width="10.24" height="10.24" fill="#000"/><rect x="20.48" y="102.4" width="10.24" height="10.24" fill="#000"/><rect x="30.72" y="102.4" width="10.24" height="10.24" fill="#000"/><rect x="51.2" y="102.4" width="10.24" height="10.24" fill="#000"/><rect x="61.44" y="102.4" width="10.24" height="10.24" fill="#000"/><rect x="81.92" y="102.4" width="10.24" height="10.24" fill="#000"/><rect x="92.16" y="102.4" width="10.24" height="10.24" fill="#000"/><rect x="102.4" y="102.4" width="10.24" height="10.24" fill="#000"/><rect x="122.88" y="102.4" width="10.24" height="10.24" fill="#000"/><rect x="133.12" y="102.4" width="10.24" height="10.24" fill="#000"/><rect x="143.36" y="102.4" width="10.24" height="10.24" fill="#000"/><rect x="174.08" y="102.4" width="10.24" height="10.24" fill="#000"/><rect x="215.04" y="102.4" width="10.24" height="10.24" fill="#000"/><rect x="245.76" y="102.4" width="10.24" height="10.24" fill="#000"/><rect x="0" y="112.64" width="10.24" height="10.24" fill="#000"/><rect x="10.24" y="112.64" width="10.24" height="10.24" fill="#000"/><rect x="20.48" y="112.64" width="10.24" height="10.24" fill="#000"/><rect x="30.72" y="112.64" width="10.24" height="10.24" fill="#000"/><rect x="92.16" y="112.64" width="10.24" height="10.24" fill="#000"/><rect x="112.64" y="112.64" width="10.24" height="10.24" fill="#000"/><rect x="122.88" y="112.64" width="10.24" height="10.24" fill="#000"/><rect x="133.12" y="112.64" width="10.24" height="10.24" fill="#000"/><rect x="184.32" y="112.64" width="10.24" height="10.24" fill="#000"/><rect x="204.8" y="112.64" width="10.24" height="10.24" fill="#000"/><rect x="0" y="122.88" width="10.24" height="10.24" fill="#000"/><rect x="30.72" y="122.88" width="10.24" height="10.24" fill="#000"/><rect x="51.2" y="122.88" width="10.24" height="10.24" fill="#000"/><rect x="61.44" y="122.88" width="10.24" height="10.24" fill="#000"/><rect x="71.68" y="122.88" width="10.24" height="10.24" fill="#000"/><rect x="92.16" y="122.88" width="10.24" height="10.24" fill="#000"/><rect x="102.4" y="122.88" width="10.24" height="10.24" fill="#000"/><rect x="112.64" y="122.88" width="10.24" height="10.24" fill="#000"/><rect x="133.12" y="122.88" width="10.24" height="10.24" fill="#000"/><rect x="163.84" y="122.88" width="10.24" height="10.24" fill="#000"/><rect x="174.08" y="122.88" width="10.24" height="10.24" fill="#000"/><rect x="184.32" y="122.88" width="10.24" height="10.24" fill="#000"/><rect x="194.56" y="122.88" width="10.24" height="10.24" fill="#000"/><rect x="204.8" y="122.88" width="10.24" height="10.24" fill="#000"/><rect x="225.28" y="122.88" width="10.24" height="10.24" fill="#000"/><rect x="235.52" y="122.88" width="10.24" height="10.24" fill="#000"/><rect x="20.48" y="133.12" width="10.24" height="10.24" fill="#000"/><rect x="30.72" y="133.12" width="10.24" height="10.24" fill="#000"/><rect x="40.96" y="133.12" width="10.24" height="10.24" fill="#000"/><rect x="51.2" y="133.12" width="10.24" height="10.24" fill="#000"/><rect x="112.64" y="133.12" width="10.24" height="10.24" fill="#000"/><rect x="133.12" y="133.12" width="10.24" height="10.24" fill="#000"/><rect x="143.36" y="133.12" width="10.24" height="10.24" fill="#000"/><rect x="153.6" y="133.12" width="10.24" height="10.24" fill="#000"/><rect x="174.08" y="133.12" width="10.24" height="10.24" fill="#000"/><rect x="184.32" y="133.12" width="10.24" height="10.24" fill="#000"/><rect x="215.04" y="133.12" width="10.24" height="10.24" fill="#000"/><rect x="225.28" y="133.12" width="10.24" height="10.24" fill="#000"/><rect x="20.48" y="143.36" width="10.24" height="10.24" fill="#000"/><rect x="30.72" y="143.36" width="10.24" height="10.24" fill="#000"/><rect x="81.92" y="143.36" width="10.24" height="10.24" fill="#000"/><rect x="92.16" y="143.36" width="10.24" height="10.24" fill="#000"/><rect x="112.64" y="143.36" width="10.24" height="10.24" fill="#000"/><rect x="122.88" y="143.36" width="10.24" height="10.24" fill="#000"/><rect x="143.36" y="143.36" width="10.24" height="10.24" fill="#000"/><rect x="153.6" y="143.36" width="10.24" height="10.24" fill="#000"/><rect x="163.84" y="143.36" width="10.24" height="10.24" fill="#000"/><rect x="194.56" y="143.36" width="10.24" height="10.24" fill="#000"/><rect x="215.04" y="143.36" width="10.24" height="10.24" fill="#000"/><rect x="225.28" y="143.36" width="10.24" height="10.24" fill="#000"/><rect x="30.72" y="153.6" width="10.24" height="10.24" fill="#000"/><rect x="40.96" y="153.6" width="10.24" height="10.24" fill="#000"/><rect x="81.92" y="153.6" width="10.24" height="10.24" fill="#000"/><rect x="112.64" y="153.6" width="10.24" height="10.24" fill="#000"/><rect x="143.36" y="153.6" width="10.24" height="10.24" fill="#000"/><rect x="153.6" y="153.6" width="10.24" height="10.24" fill="#000"/><rect x="163.84" y="153.6" width="10.24" height="10.24" fill="#000"/><rect x="174.08" y="153.6" width="10.24" height="10.24" fill="#000"/><rect x="184.32" y="153.6" width="10.24" height="10.24" fill="#000"/><rect x="204.8" y="153.6" width="10.24" height="10.24" fill="#000"/><rect x="235.52" y="153.6" width="10.24" height="10.24" fill="#000"/><rect x="245.76" y="153.6" width="10.24" height="10.24" fill="#000"/><rect x="0" y="163.84" width="10.24" height="10.24" fill="#000"/><rect x="10.24" y="163.84" width="10.24" height="10.24" fill="#000"/><rect x="40.96" y="163.84" width="10.24" height="10.24" fill="#000"/><rect x="51.2" y="163.84" width="10.24" height="10.24" fill="#000"/><rect x="61.44" y="163.84" width="10.24" height="10.24" fill="#000"/><rect x="81.92" y="163.84" width="10.24" height="10.24" fill="#000"/><rect x="112.64" y="163.84" width="10.24" height="10.24" fill="#000"/><rect x="143.36" y="163.84" width="10.24" height="10.24" fill="#000"/><rect x="184.32" y="163.84" width="10.24" height="10.24" fill="#000"/><rect x="194.56" y="163.84" width="10.24" height="10.24" fill="#000"/><rect x="235.52" y="163.84" width="10.24" height="10.24" fill="#000"/><rect x="245.76" y="163.84" width="10.24" height="10.24" fill="#000"/><rect x="102.4" y="174.08" width="10.24" height="10.24" fill="#000"/><rect x="112.64" y="174.08" width="10.24" height="10.24" fill="#000"/><rect x="174.08" y="174.08" width="10.24" height="10.24" fill="#000"/><rect x="184.32" y="174.08" width="10.24" height="10.24" fill="#000"/><rect x="215.04" y="174.08" width="10.24" height="10.24" fill="#000"/><rect x="102.4" y="184.32" width="10.24" height="10.24" fill="#000"/><rect x="112.64" y="184.32" width="10.24" height="10.24" fill="#000"/><rect x="122.88" y="184.32" width="10.24" height="10.24" fill="#000"/><rect x="133.12" y="184.32" width="10.24" height="10.24" fill="#000"/><rect x="143.36" y="184.32" width="10.24" height="10.24" fill="#000"/><rect x="153.6" y="184.32" width="10.24" height="10.24" fill="#000"/><rect x="163.84" y="184.32" width="10.24" height="10.24" fill="#000"/><rect x="184.32" y="184.32" width="10.24" height="10.24" fill="#000"/><rect x="194.56" y="184.32" width="10.24" height="10.24" fill="#000"/><rect x="81.92" y="194.56" width="10.24" height="10.24" fill="#000"/><rect x="102.4" y="194.56" width="10.24" height="10.24" fill="#000"/><rect x="122.88" y="194.56" width="10.24" height="10.24" fill="#000"/><rect x="163.84" y="194.56" width="10.24" height="10.24" fill="#000"/><rect x="174.08" y="194.56" width="10.24" height="10.24" fill="#000"/><rect x="204.8" y="194.56" width="10.24" height="10.24" fill="#000"/><rect x="245.76" y="194.56" width="10.24" height="10.24" fill="#000"/><rect x="92.16" y="204.8" width="10.24" height="10.24" fill="#000"/><rect x="133.12" y="204.8" width="10.24" height="10.24" fill="#000"/><rect x="153.6" y="204.8" width="10.24" height="10.24" fill="#000"/><rect x="163.84" y="204.8" width="10.24" height="10.24" fill="#000"/><rect x="174.08" y="204.8" width="10.24" height="10.24" fill="#000"/><rect x="184.32" y="204.8" width="10.24" height="10.24" fill="#000"/><rect x="204.8" y="204.8" width="10.24" height="10.24" fill="#000"/><rect x="143.36" y="215.04" width="10.24" height="10.24" fill="#000"/><rect x="163.84" y="215.04" width="10.24" height="10.24" fill="#000"/><rect x="174.08" y="215.04" width="10.24" height="10.24" fill="#000"/><rect x="194.56" y="215.04" width="10.24" height="10.24" fill="#000"/><rect x="204.8" y="215.04" width="10.24" height="10.24" fill="#000"/><rect x="215.04" y="215.04" width="10.24" height="10.24" fill="#000"/><rect x="225.28" y="215.04" width="10.24" height="10.24" fill="#000"/><rect x="81.92" y="225.28" width="10.24" height="10.24" fill="#000"/><rect x="112.64" y="225.28" width="10.24" height="10.24" fill="#000"/><rect x="122.88" y="225.28" width="10.24" height="10.24" fill="#000"/><rect x="143.36" y="225.28" width="10.24" height="10.24" fill="#000"/><rect x="194.56" y="225.28" width="10.24" height="10.24" fill="#000"/><rect x="204.8" y="225.28" width="10.24" height="10.24" fill="#000"/><rect x="215.04" y="225.28" width="10.24" height="10.24" fill="#000"/><rect x="235.52" y="225.28" width="10.24" height="10.24" fill="#000"/><rect x="81.92" y="235.52" width="10.24" height="10.24" fill="#000"/><rect x="102.4" y="235.52" width="10.24" height="10.24" fill="#000"/><rect x="112.64" y="235.52" width="10.24" height="10.24" fill="#000"/><rect x="122.88" y="235.52" width="10.24" height="10.24" fill="#000"/><rect x="133.12" y="235.52" width="10.24" height="10.24" fill="#000"/><rect x="184.32" y="235.52" width="10.24" height="10.24" fill="#000"/><rect x="194.56" y="235.52" width="10.24" height="10.24" fill="#000"/><rect x="225.28" y="235.52" width="10.24" height="10.24" fill="#000"/><rect x="235.52" y="235.52" width="10.24" height="10.24" fill="#000"/><rect x="112.64" y="245.76" width="10.24" height="10.24" fill="#000"/><rect x="133.12" y="245.76" width="10.24" height="10.24" fill="#000"/><rect x="143.36" y="245.76" width="10.24" height="10.24" fill="#000"/><rect x="174.08" y="245.76" width="10.24" height="10.24" fill="#000"/><rect x="184.32" y="245.76" width="10.24" height="10.24" fill="#000"/><rect x="204.8" y="245.76" width="10.24" height="10.24" fill="#000"/><rect x="235.52" y="245.76" width="10.24" height="10.24" fill="#000"/><rect x="245.76" y="245.76" width="10.24" height="10.24" fill="#000"/>
  <rect x="0" y="0" width="71.68" height="71.68" fill="#000"/><rect x="10.24" y="10.24" width="51.2" height="51.2" fill="#fff"/><rect x="20.48" y="20.48" width="30.72" height="30.72" fill="#000"/><rect x="184.32" y="0" width="71.68" height="71.68" fill="#000"/><rect x="194.56" y="10.24" width="51.2" height="51.2" fill="#fff"/><rect x="204.8" y="20.48" width="30.72" height="30.72" fill="#000"/><rect x="0" y="184.32" width="71.68" height="71.68" fill="#000"/><rect x="10.24" y="194.56" width="51.2" height="51.2" fill="#fff"/><rect x="20.48" y="204.8" width="30.72" height="30.72" fill="#000"/>
</svg>
